<?xml version="1.0" standalone="no"?>
<!DOCTYPE svg PUBLIC "-//W3C//DTD SVG 20010904//EN"
 "http://www.w3.org/TR/2001/REC-SVG-20010904/DTD/svg10.dtd">
<svg version="1.0" xmlns="http://www.w3.org/2000/svg"
 width="1080.000000pt" height="1080.000000pt" viewBox="0 0 1080.000000 1080.000000"
 preserveAspectRatio="xMidYMid meet">

<g transform="translate(0.000000,1080.000000) scale(0.100000,-0.100000)"
fill="#000000" stroke="none">
<path d="M0 5400 l0 -5400 5400 0 5400 0 0 5400 0 5400 -5400 0 -5400 0 0
-5400z m4777 3014 c-3 -3 -12 -4 -19 -1 -8 3 -5 6 6 6 11 1 17 -2 13 -5z
m1160 0 c-3 -3 -12 -4 -19 -1 -8 3 -5 6 6 6 11 1 17 -2 13 -5z m78 -19 l30
-14 -30 6 c-16 3 -37 9 -45 14 -27 15 11 10 45 -6z m-1448 -187 c-2 -18 -4 -6
-4 27 0 33 2 48 4 33 2 -15 2 -42 0 -60z m1436 -2445 l127 -6 -1 -91 c0 -67
-3 -86 -10 -71 -10 20 -17 20 -255 17 -134 -3 -273 -1 -307 2 l-62 7 0 57 c0
41 4 59 15 64 12 5 11 7 -5 9 -28 4 148 15 270 17 55 1 157 -1 228 -5z m-1436
-135 c-2 -24 -4 -5 -4 42 0 47 2 66 4 43 2 -24 2 -62 0 -85z m2120 -570 c-3
-7 -5 -2 -5 12 0 14 2 19 5 13 2 -7 2 -19 0 -25z m-1791 -743 c9 -21 70 -20
78 2 12 31 28 -1 19 -38 -9 -35 -43 -54 -43 -25 0 21 -56 22 -64 1 -3 -8 -12
-15 -20 -15 -15 0 -15 31 0 78 5 17 23 15 30 -3z m786 -10 c-2 -10 -10 -24
-19 -30 -12 -9 -8 -14 21 -28 l36 -16 31 39 c18 22 34 38 36 36 3 -2 -5 -26
-17 -53 l-21 -49 25 -45 c37 -63 31 -71 -13 -20 l-37 44 -66 -26 c-41 -17 -93
-29 -139 -32 l-74 -5 65 15 c78 18 173 63 164 77 -8 12 -104 58 -122 58 -7 0
-11 -4 -7 -9 5 -10 -13 -27 -20 -19 -3 2 1 20 7 41 11 35 12 36 67 40 81 5 86
4 83 -18z m-628 0 c7 -20 46 -19 74 1 13 9 26 14 29 10 3 -3 -10 -15 -30 -26
-19 -12 -38 -27 -41 -35 -7 -19 -26 -20 -26 -2 0 8 -9 22 -20 32 -11 10 -20
22 -20 27 0 14 28 9 34 -7z m286 8 c-1 -26 -49 -53 -96 -53 -36 0 -29 18 9 22
44 4 41 22 -5 26 -34 3 -37 1 -48 -32 -6 -20 -16 -36 -21 -36 -12 0 -12 22 1
54 9 25 13 26 85 26 41 0 75 -3 75 -7z m145 0 c-59 -7 -73 -13 -78 -33 -5 -18
0 -20 39 -20 24 0 44 -4 44 -10 0 -6 -32 -10 -75 -10 -41 0 -75 2 -75 5 0 3 4
13 9 23 5 9 12 25 15 35 5 14 17 17 78 16 40 -1 60 -4 43 -6z m-868 -75 c-3
-8 -6 -5 -6 6 -1 11 2 17 5 13 3 -3 4 -12 1 -19z m660 -674 c-3 -3 -12 -4 -19
-1 -8 3 -5 6 6 6 11 1 17 -2 13 -5z m580 -600 c-3 -3 -12 -4 -19 -1 -8 3 -5 6
6 6 11 1 17 -2 13 -5z m-1079 -11 c-10 -2 -26 -2 -35 0 -10 3 -2 5 17 5 19 0
27 -2 18 -5z m-495 -20 c-13 -2 -33 -2 -45 0 -13 2 -3 4 22 4 25 0 35 -2 23
-4z m2150 0 c-7 -2 -19 -2 -25 0 -7 3 -2 5 12 5 14 0 19 -2 13 -5z m144 -9
c-3 -3 -12 -4 -19 -1 -8 3 -5 6 6 6 11 1 17 -2 13 -5z m-2049 -271 c-16 -2
-40 -2 -55 0 -16 2 -3 4 27 4 30 0 43 -2 28 -4z m1469 -9 c-3 -3 -12 -4 -19
-1 -8 3 -5 6 6 6 11 1 17 -2 13 -5z m-3834 -1574 c-3 -11 -7 -20 -9 -20 -2 0
-4 9 -4 20 0 11 4 20 9 20 5 0 7 -9 4 -20z m47 5 c0 -8 -7 -15 -15 -15 -26 0
-18 20 13 29 1 1 2 -6 2 -14z m-115 -71 c-9 -25 -32 -65 -50 -89 l-33 -43 48
-57 c43 -50 110 -161 110 -180 0 -3 -12 8 -27 27 -42 52 -115 128 -145 149
l-28 20 -72 -35 c-125 -62 -208 -78 -413 -82 l-180 -3 115 14 c63 8 151 22
194 30 86 18 244 77 279 105 21 18 21 18 -62 59 -73 37 -176 70 -266 85 -16 2
15 3 70 1 105 -3 216 -33 291 -77 l34 -20 35 26 c19 15 52 51 72 80 43 60 53
56 28 -10z"/>
<path d="M5570 4295 c0 -12 8 -16 33 -13 17 2 32 8 32 13 0 6 -15 11 -32 13
-25 3 -33 -1 -33 -13z"/>
</g>
</svg>
