<?xml version="1.0" standalone="no"?>
<!DOCTYPE svg PUBLIC "-//W3C//DTD SVG 20010904//EN"
 "http://www.w3.org/TR/2001/REC-SVG-20010904/DTD/svg10.dtd">
<svg version="1.0" xmlns="http://www.w3.org/2000/svg"
 width="300.000000pt" height="233.000000pt" viewBox="0 0 300.000000 233.000000"
 preserveAspectRatio="xMidYMid meet">

<g transform="translate(0.000000,233.000000) scale(0.100000,-0.100000)"
fill="#000000" stroke="none">
<path d="M1080 2075 l0 -255 40 0 40 0 0 -144 0 -144 -122 -4 c-98 -3 -133 -9
-171 -26 -27 -12 -232 -153 -457 -313 l-409 -291 26 -39 c14 -21 27 -39 30
-39 2 0 185 129 406 287 221 157 423 295 450 305 43 16 83 18 427 18 367 0
381 -1 400 -20 30 -30 28 -119 -3 -148 -22 -21 -32 -22 -306 -24 l-282 -3 238
-165 c130 -91 256 -174 278 -185 38 -19 59 -20 355 -20 313 0 315 0 365 24 34
17 103 77 221 193 189 187 202 194 263 142 56 -47 49 -66 -115 -300 -200 -285
-248 -332 -390 -386 -59 -23 -63 -23 -779 -28 -708 -5 -721 -5 -766 -26 -25
-12 -151 -106 -280 -209 -129 -104 -236 -189 -238 -191 -5 -4 50 -74 59 -74 5
0 111 84 237 186 125 102 244 193 263 202 31 15 113 18 755 22 774 6 744 4
857 61 113 57 166 113 338 358 168 241 190 279 190 333 -1 73 -84 165 -158
175 -71 10 -110 -4 -168 -59 l-54 -51 0 292 0 291 40 0 40 0 -2 253 -3 252
-807 3 -808 2 0 -255z m760 0 l0 -155 -330 0 -330 0 0 155 0 155 330 0 330 0
0 -155z m750 0 l0 -155 -325 0 -325 0 0 155 0 155 325 0 325 0 0 -155z m-750
-447 l0 -193 -20 29 c-39 61 -60 65 -322 66 l-238 0 0 145 0 145 290 0 290 0
0 -192z m680 -146 l0 -338 -72 -71 c-109 -106 -111 -107 -325 -111 l-183 -4 0
431 0 431 290 0 290 0 0 -338z m-680 -393 l0 -132 -58 6 c-68 6 -95 19 -221
107 l-94 65 134 5 c140 5 173 15 213 59 11 12 21 21 23 21 1 0 3 -59 3 -131z"/>
</g>
</svg>
