<?xml version="1.0" standalone="no"?>
<!DOCTYPE svg PUBLIC "-//W3C//DTD SVG 20010904//EN"
 "http://www.w3.org/TR/2001/REC-SVG-20010904/DTD/svg10.dtd">
<svg version="1.0" xmlns="http://www.w3.org/2000/svg"
 width="3142.000000pt" height="2176.000000pt" viewBox="0 0 3142.000000 2176.000000"
 preserveAspectRatio="xMidYMid meet">

<g transform="translate(0.000000,2176.000000) scale(0.100000,-0.100000)"
fill="#000000" stroke="none">
<path d="M23163 17851 c-133 -24 -177 -47 -260 -134 -110 -116 -196 -319 -210
-492 -10 -128 29 -353 99 -565 33 -102 78 -221 100 -266 l40 -80 -35 -71 c-20
-39 -51 -83 -69 -98 -50 -42 -152 -85 -379 -159 -269 -87 -366 -142 -408 -231
-28 -59 -158 -508 -165 -570 -4 -27 -10 -165 -15 -305 -5 -140 -14 -275 -20
-300 -41 -174 -75 -354 -91 -484 -36 -284 -80 -576 -100 -659 -11 -45 -20 -85
-20 -89 0 -4 25 -12 55 -19 30 -7 55 -16 55 -21 0 -5 5 -6 10 -3 6 3 10 1 10
-5 0 -7 7 -9 16 -6 9 4 13 2 8 -5 -4 -7 -1 -10 7 -7 8 3 20 -2 27 -11 11 -13
12 -13 7 -1 -4 8 3 4 15 -10 12 -14 19 -18 15 -10 -4 8 3 4 14 -10 11 -14 21
-22 21 -17 0 4 14 -7 31 -25 18 -18 26 -24 19 -13 -9 13 -5 11 11 -5 13 -14
35 -42 49 -62 13 -20 27 -35 31 -33 3 2 6 -1 6 -8 0 -17 33 -67 45 -67 5 0 6
-4 3 -10 -3 -5 -1 -10 5 -10 7 0 10 -7 6 -15 -3 -8 -1 -15 3 -15 5 0 14 -21
20 -47 14 -64 42 -455 44 -623 1 -74 5 -137 9 -140 4 -3 9 -94 12 -203 3 -109
8 -203 11 -208 4 -5 6 -114 6 -242 0 -235 7 -764 11 -847 1 -25 7 -48 12 -52
13 -8 48 21 40 33 -3 5 2 9 10 9 9 0 16 5 16 12 0 6 3 9 6 5 4 -3 13 0 20 8
20 20 111 28 234 23 92 -5 110 -8 129 -27 11 -11 30 -21 41 -21 12 0 32 -16
49 -40 15 -21 31 -36 35 -33 3 3 6 -3 6 -15 0 -12 5 -22 11 -22 5 0 8 -4 4 -9
-3 -5 -1 -12 4 -16 6 -3 7 -13 4 -22 -4 -10 -2 -14 4 -10 6 4 11 -3 12 -16 1
-12 2 -39 4 -59 1 -21 4 -38 8 -38 3 0 5 -15 4 -34 0 -19 3 -32 7 -30 4 3 6
-38 5 -91 -1 -52 0 -95 3 -95 6 0 14 -328 11 -458 -1 -52 2 -92 7 -89 4 3 78
152 163 331 85 178 156 322 159 319 17 -16 64 -479 111 -1078 24 -320 23 -398
-12 -960 -14 -235 -53 -472 -108 -670 -48 -170 -65 -306 -65 -522 -1 -90 -3
-163 -6 -163 -3 0 -35 33 -72 73 -76 84 -188 251 -278 414 -57 104 -63 121
-80 225 -10 62 -23 165 -29 228 -26 257 -34 320 -52 435 -34 214 -57 377 -70
498 -9 83 -17 117 -26 117 -11 0 -18 -27 -14 -52 0 -5 -4 -8 -10 -8 -5 0 -8
-4 -5 -9 7 -11 -13 -71 -23 -71 -4 0 -18 -14 -30 -31 -13 -18 -17 -29 -10 -25
8 4 5 0 -6 -9 -11 -9 -19 -21 -17 -26 1 -5 -2 -9 -8 -9 -5 0 -10 -6 -10 -14 0
-8 -7 -16 -15 -19 -11 -5 -22 17 -45 90 l-31 95 56 58 c30 32 53 64 51 72 -54
169 -112 333 -163 454 -3 8 21 10 87 6 l92 -5 -3 214 c-1 118 -8 270 -16 339
-8 69 -12 137 -10 152 2 15 0 25 -5 22 -8 -5 -12 44 -11 118 0 23 -3 35 -10
31 -6 -4 -8 4 -5 20 3 17 1 24 -5 20 -6 -4 -8 0 -4 11 12 30 -17 46 -78 46
-38 0 -62 -5 -72 -16 -11 -11 -13 -18 -5 -22 6 -5 10 -48 9 -119 -1 -61 1
-106 5 -100 4 7 8 -12 8 -41 0 -29 -3 -51 -7 -49 -5 3 -7 -34 -7 -81 1 -48 -1
-91 -4 -97 -3 -5 -5 -24 -3 -42 1 -18 -2 -33 -8 -33 -6 0 -7 -14 -4 -35 3 -20
1 -35 -4 -35 -5 0 -8 -13 -5 -30 2 -16 0 -30 -5 -30 -5 0 -8 -15 -5 -32 10
-76 -27 5 -152 329 -55 142 -90 187 -208 270 -49 34 -75 59 -71 66 4 7 35 57
69 112 86 140 114 199 135 280 l18 70 -34 320 c-69 649 -96 849 -170 1275 -79
450 -91 511 -120 595 -34 98 -45 112 -135 175 -100 70 -246 214 -254 251 -11
52 -25 157 -31 224 -11 122 -44 264 -110 465 -35 107 -77 249 -94 316 -35 137
-99 353 -139 464 -32 90 -179 316 -245 377 -97 89 -176 113 -402 120 -158 5
-174 4 -225 -17 -73 -29 -177 -109 -287 -223 -105 -109 -125 -146 -218 -406
-35 -97 -88 -239 -118 -316 -76 -194 -102 -290 -117 -432 -12 -107 -12 -132 3
-214 9 -51 28 -115 43 -142 l26 -50 -84 6 c-55 4 -129 20 -218 47 -273 83
-322 106 -475 220 -87 64 -95 73 -130 147 -69 143 -352 809 -401 943 -37 99
-70 260 -84 405 -7 72 -19 141 -26 156 -15 30 -96 71 -254 129 -141 52 -524
211 -610 253 -58 28 -71 40 -115 108 -27 42 -83 111 -123 155 -79 86 -84 98
-99 234 -9 82 -9 87 17 140 15 30 33 72 39 92 8 24 29 52 56 74 24 19 48 50
54 67 5 18 13 105 16 194 7 153 6 163 -14 190 -18 25 -20 33 -10 68 16 53 15
199 -1 255 -7 25 -14 54 -16 65 -6 34 -46 128 -67 160 -127 189 -230 248 -482
275 -205 22 -395 -17 -491 -102 -22 -19 -58 -48 -81 -66 -30 -24 -55 -59 -93
-133 -101 -197 -118 -296 -80 -462 l23 -98 -22 -29 c-27 -37 -27 -61 4 -216
28 -139 41 -164 121 -240 l44 -42 0 -103 c0 -57 -4 -108 -8 -114 -11 -15 -108
-94 -195 -159 -107 -80 -344 -184 -542 -238 -194 -53 -472 -133 -507 -147 -15
-5 -46 -29 -68 -51 l-41 -41 2 -92 c2 -132 -61 -430 -161 -767 -83 -278 -175
-551 -205 -610 -21 -41 -269 -454 -332 -553 -52 -81 -41 -81 -213 -6 -136 60
-147 68 -196 144 l-37 59 11 97 c10 99 27 145 68 189 48 52 115 191 130 269
18 96 22 277 6 293 -9 9 -12 80 -12 244 0 127 -5 256 -10 285 -15 81 -53 149
-121 217 -102 103 -194 136 -497 178 -125 18 -127 18 -231 -4 -148 -30 -251
-83 -351 -182 -127 -125 -146 -197 -154 -601 -3 -171 -7 -211 -21 -240 -16
-30 -17 -45 -6 -159 13 -135 20 -151 113 -263 24 -28 34 -52 39 -95 11 -83 10
-170 0 -177 -5 -3 -12 -19 -16 -35 -9 -39 -97 -136 -149 -162 -40 -20 -49 -21
-336 -13 -162 4 -308 7 -323 6 -42 -1 -173 -69 -227 -118 -26 -23 -61 -69 -79
-102 -17 -33 -38 -67 -45 -74 -45 -45 -125 -247 -280 -710 -51 -152 -166 -445
-230 -589 -14 -32 -80 -214 -147 -405 l-121 -348 6 -90 c5 -92 37 -205 105
-380 29 -76 157 -327 206 -405 l22 -34 -81 -101 c-132 -162 -130 -158 -136
-315 l-5 -135 -45 -7 c-25 -3 -112 -12 -195 -18 -82 -6 -163 -13 -179 -17
l-29 -6 7 64 c4 35 18 129 32 208 13 80 24 153 24 163 0 16 -9 18 -73 18 l-74
0 -16 -100 c-10 -54 -17 -112 -17 -128 0 -16 -3 -32 -7 -35 -3 -4 -5 -41 -4
-83 2 -56 -1 -74 -9 -69 -9 5 -10 1 -6 -13 6 -18 2 -21 -36 -26 -59 -7 -309
-34 -386 -41 l-62 -6 1 113 c0 68 4 105 8 93 5 -11 7 18 5 70 -3 61 -1 83 5
70 6 -14 8 1 4 45 -6 77 14 220 28 199 7 -10 8 -6 4 12 -7 29 32 142 46 134 5
-4 6 0 4 7 -3 8 2 22 11 33 8 11 13 14 9 8 -11 -23 1 -13 25 20 l23 32 -24
-20 -24 -20 19 22 c10 13 23 20 29 16 6 -3 21 7 35 23 13 16 21 23 18 17 -5
-9 -2 -11 8 -7 9 3 14 10 11 14 -8 13 55 31 133 37 73 6 208 -19 197 -37 -6
-10 24 -22 35 -15 5 3 12 0 16 -6 5 -8 3 -9 -7 -4 -12 8 -12 6 0 -9 8 -9 20
-15 26 -12 7 2 26 -10 41 -27 l29 -32 -35 30 -35 30 27 -30 c15 -17 36 -31 46
-32 22 -2 22 2 44 654 6 199 14 360 17 358 3 -2 5 58 3 133 -1 76 1 132 5 125
5 -6 6 41 5 104 -2 63 0 113 5 110 4 -3 7 45 5 106 -1 62 1 107 5 100 5 -6 7
39 5 100 -1 62 1 107 5 101 4 -7 8 47 9 120 0 140 19 270 37 259 6 -3 7 -1 3
5 -9 14 4 63 14 57 5 -3 6 5 2 17 -4 15 -2 19 7 13 10 -6 11 -2 6 15 -5 16 -4
20 5 15 9 -5 10 -1 5 15 -5 16 -4 20 5 15 9 -5 10 -1 5 15 -5 15 -3 20 3 16
13 -8 26 29 16 45 -4 7 -3 9 3 6 13 -8 36 41 27 55 -5 7 -2 8 6 3 10 -6 12 -4
7 8 -4 10 -2 16 5 14 6 -1 13 4 16 12 3 9 0 11 -9 6 -8 -4 2 9 21 29 19 20 40
34 47 32 7 -3 15 0 19 6 4 7 3 8 -4 4 -7 -4 -12 -5 -12 -2 0 11 102 66 112 60
6 -4 8 -3 5 3 -4 6 7 16 24 23 16 7 28 18 25 24 -130 307 -197 488 -262 701
-104 343 -278 896 -319 1013 -19 54 -45 144 -59 201 -14 57 -32 114 -41 127
-8 13 -47 40 -85 59 -65 33 -72 40 -95 91 -14 31 -40 82 -58 113 -30 50 -38
78 -66 251 -31 192 -32 200 -30 510 1 206 -3 331 -10 360 -6 25 -22 124 -36
221 -35 252 -66 323 -193 439 -89 82 -173 137 -241 157 -90 28 -396 23 -515
-7 -147 -38 -187 -68 -284 -213 -57 -84 -137 -255 -147 -312 -19 -112 -52
-217 -91 -298 -24 -50 -44 -98 -44 -107 0 -9 -9 -43 -20 -75 -11 -32 -34 -140
-51 -239 -38 -217 -51 -257 -133 -381 -40 -61 -70 -119 -81 -158 -10 -34 -26
-74 -36 -88 -19 -28 -160 -98 -297 -148 -84 -31 -135 -65 -225 -150 -63 -60
-83 -101 -90 -186 -3 -38 -33 -185 -66 -325 -33 -140 -78 -334 -101 -430 -51
-217 -116 -619 -195 -1204 -33 -247 -33 -285 4 -361 15 -33 39 -70 52 -81 29
-26 151 -107 374 -249 218 -139 429 -281 444 -299 9 -11 9 -146 0 -585 -7
-314 -11 -573 -8 -575 4 -4 228 -36 250 -36 3 0 8 -46 11 -103 4 -100 6 -107
80 -292 80 -199 122 -343 279 -965 44 -173 91 -346 105 -384 l25 -69 -31 -336
c-42 -472 -69 -813 -76 -976 -9 -186 16 -471 56 -671 11 -50 12 -52 51 -57 22
-3 44 -8 47 -12 4 -4 8 -224 10 -490 l3 -483 -45 -79 c-26 -45 -72 -157 -109
-263 -53 -150 -70 -216 -91 -345 -43 -265 -43 -267 -13 -318 56 -95 301 -291
380 -304 36 -5 40 -3 87 48 62 67 101 139 134 250 23 74 26 103 26 222 0 130
1 137 20 137 29 0 37 -25 45 -148 l7 -112 62 -55 61 -55 198 0 c108 0 197 -2
197 -4 0 -2 -7 -23 -15 -47 -14 -38 -14 -47 0 -90 10 -30 31 -61 58 -86 62
-57 148 -69 368 -53 216 15 247 30 367 175 114 137 170 193 213 216 27 13 83
22 213 33 194 17 227 27 245 78 17 47 34 317 28 433 -3 71 -12 123 -31 178
-16 49 -26 99 -26 137 l0 60 58 0 58 0 38 118 c20 64 41 144 46 177 19 123 30
155 53 156 19 1 19 2 4 6 -13 3 -17 11 -14 26 3 12 9 40 12 62 4 22 27 137 52
255 36 171 59 252 113 395 37 99 73 198 79 220 7 22 44 103 81 180 57 116 77
170 115 315 25 96 50 184 56 195 5 11 25 83 44 159 20 77 37 141 39 143 1 2
133 21 292 43 159 22 367 51 462 65 96 14 196 25 222 25 27 0 82 7 122 15 40
9 150 29 243 46 254 44 311 66 440 171 43 35 101 81 130 103 148 114 389 365
432 449 28 56 57 171 84 332 17 109 20 156 15 304 l-5 175 72 49 c40 27 125
85 189 128 148 100 163 118 172 200 4 34 49 236 101 448 106 434 111 459 120
660 5 114 1 211 -20 450 -31 368 -36 412 -76 657 l-32 192 78 83 c43 46 93
107 112 136 18 28 37 52 42 52 4 0 9 -35 10 -77 1 -43 13 -325 26 -628 42
-937 42 -910 6 -1120 -17 -99 -33 -191 -36 -205 -3 -14 -14 -79 -26 -145 -11
-66 -37 -172 -58 -235 -44 -131 -42 -144 22 -160 l42 -11 -3 -312 c-3 -316 5
-442 44 -664 8 -45 18 -158 24 -250 5 -92 21 -276 35 -408 36 -341 46 -569 45
-1070 0 -242 5 -597 11 -790 7 -257 7 -498 -1 -909 -7 -307 -9 -578 -5 -603 7
-51 14 -55 161 -98 49 -14 92 -31 96 -38 18 -28 3 -60 -80 -179 -142 -203
-172 -290 -118 -347 53 -56 134 -103 199 -117 83 -17 314 -29 409 -20 l77 8
58 76 c40 52 74 85 106 103 106 57 144 124 134 237 -3 37 -13 87 -22 110 l-17
42 26 21 c15 12 36 39 47 61 19 37 21 64 26 310 8 356 -8 618 -58 963 -60 411
-62 431 -50 780 13 369 18 482 31 635 5 63 14 183 20 265 6 83 20 231 31 330
11 99 22 203 25 230 3 28 7 68 9 90 26 227 66 613 75 705 13 140 52 384 80
505 24 106 69 245 78 245 4 0 8 -44 9 -98 3 -196 34 -1214 43 -1442 5 -129 13
-325 17 -435 10 -254 10 -879 1 -1055 -10 -179 -33 -390 -52 -470 -56 -245
-129 -623 -141 -738 -13 -121 -13 -163 1 -357 28 -406 30 -428 53 -443 20 -14
20 -14 -4 -53 -22 -34 -25 -50 -25 -131 0 -77 4 -102 24 -145 22 -46 29 -53
68 -63 71 -18 76 -20 87 -34 6 -7 14 -41 18 -75 3 -34 13 -71 22 -82 11 -13
57 -27 160 -49 155 -32 309 -39 456 -20 64 8 73 12 103 47 84 95 82 139 -7
302 -89 162 -136 259 -129 266 3 3 36 8 74 12 68 6 135 32 197 75 l27 19 0
277 c0 152 5 333 10 402 18 230 49 673 60 860 6 102 15 248 20 325 5 77 12
196 15 265 4 69 8 143 10 165 2 22 6 101 10 175 3 74 15 234 25 355 11 121 22
252 26 290 12 150 69 457 109 590 24 81 39 219 23 209 -4 -3 -7 22 -6 54 2 33
0 58 -4 56 -3 -2 -8 19 -10 47 -4 72 3 210 11 205 4 -3 5 29 3 71 -1 42 1 72
6 69 5 -3 8 21 6 55 -2 33 0 58 4 55 5 -3 7 15 6 40 -2 24 1 42 5 40 4 -3 5 9
3 26 -3 17 -1 28 4 25 5 -3 10 10 11 28 2 38 41 135 55 135 5 0 7 4 4 9 -3 5
1 12 10 15 8 3 12 10 9 16 -3 5 0 10 8 10 8 0 21 8 28 18 13 16 12 16 -6 2
-17 -12 -18 -12 -7 0 7 8 17 16 23 16 5 1 13 2 18 3 6 0 22 12 37 26 15 14 34
23 41 21 7 -3 13 -2 13 3 0 5 20 12 45 15 25 4 45 11 45 15 0 4 -4 32 -9 62
-5 30 -15 97 -21 149 -7 52 -21 154 -31 225 -37 251 -78 553 -114 825 -19 151
-44 320 -55 376 -44 230 -88 611 -97 841 -5 140 -4 157 17 222 12 39 26 71 30
71 4 0 23 -24 42 -53 41 -61 264 -336 287 -354 203 -155 324 -227 397 -235 16
-2 33 -7 37 -13 5 -6 7 -3 4 7 -7 19 13 88 24 88 5 0 6 7 3 15 -4 8 -1 15 6
15 7 0 10 6 7 14 -3 8 -1 16 5 18 6 2 12 13 12 24 1 11 5 25 10 32 4 6 4 12
-1 12 -4 0 -2 4 6 9 8 5 30 39 50 76 20 38 45 73 56 79 11 6 22 13 25 16 13
13 66 44 73 42 4 -1 7 3 7 9 0 5 5 7 10 4 6 -3 10 -2 10 3 0 13 78 44 91 37 5
-4 9 -2 9 3 0 11 2 11 143 41 130 28 441 31 451 5 13 -34 5 -66 -26 -99 -28
-31 -67 -48 -278 -126 -259 -96 -299 -119 -320 -183 -5 -17 -22 -123 -37 -236
-27 -202 -28 -212 -25 -665 3 -437 31 -1292 51 -1531 6 -62 7 -121 4 -133 -7
-28 17 -62 71 -101 l44 -32 -13 -46 c-7 -26 -42 -143 -79 -260 -36 -117 -75
-253 -86 -303 -29 -127 -60 -381 -67 -539 -5 -127 -4 -136 15 -153 27 -25 81
-38 395 -102 147 -29 275 -59 282 -65 8 -7 58 -96 112 -199 53 -102 106 -202
118 -221 12 -19 88 -162 169 -318 l147 -282 -32 -58 c-49 -87 -86 -139 -159
-227 -90 -109 -293 -370 -425 -545 -60 -80 -111 -147 -115 -150 -3 -3 -34 -45
-68 -95 -33 -49 -86 -115 -117 -145 l-55 -54 -73 1 c-230 4 -237 3 -314 -49
-46 -31 -139 -126 -184 -187 -24 -31 -30 -53 -35 -113 -7 -80 3 -114 45 -152
12 -11 21 -23 21 -27 0 -11 -268 -470 -287 -491 -25 -28 -43 -108 -43 -189 0
-90 21 -156 82 -261 42 -73 75 -100 198 -164 70 -36 81 -39 160 -39 70 1 95 5
140 26 72 34 116 72 129 112 14 45 51 334 51 402 0 65 2 69 239 484 92 161
132 221 191 285 41 45 104 114 140 155 66 75 183 171 464 380 55 41 105 74
112 74 7 0 11 4 8 8 -2 4 17 22 43 40 132 88 450 344 679 545 264 232 380 368
542 634 134 220 122 206 203 231 105 32 114 27 132 -78 9 -49 20 -133 27 -188
11 -101 17 -150 45 -395 14 -114 47 -341 60 -408 2 -10 15 -91 30 -178 14 -87
33 -186 42 -219 9 -33 16 -65 16 -72 0 -7 4 -10 9 -7 4 3 8 -3 8 -12 0 -19 98
-216 112 -225 4 -3 37 -11 73 -18 36 -7 62 -17 59 -22 -3 -5 2 -6 11 -3 14 6
241 -71 255 -86 3 -3 12 -6 20 -8 28 -7 209 -101 228 -119 35 -34 147 -178
195 -249 38 -58 47 -80 47 -116 0 -25 7 -52 16 -64 8 -10 12 -12 8 -4 -4 9 -3
12 2 7 5 -5 9 -12 10 -15 0 -4 3 -14 6 -22 18 -45 15 -109 -8 -209 -4 -20 -2
-23 18 -18 13 3 39 9 59 12 36 7 36 6 45 -37 l9 -43 75 -8 c41 -4 87 -6 102
-5 l27 3 -60 129 c-32 71 -59 138 -59 149 0 43 39 5 125 -120 127 -187 182
-246 266 -289 187 -94 377 -127 607 -106 71 6 142 16 158 22 88 33 159 116
174 203 5 28 12 61 15 72 3 13 -7 36 -29 67 -35 46 -171 171 -253 232 -41 30
-42 33 -43 86 0 57 40 189 67 222 8 9 29 19 48 22 18 4 37 12 43 19 5 6 15 86
21 177 7 91 18 251 26 355 28 383 35 506 40 800 7 363 14 497 60 1095 8 107
20 254 25 325 5 72 14 184 20 250 5 66 14 185 20 265 6 80 15 201 20 270 11
131 26 384 35 586 9 184 13 204 40 214 13 5 93 18 177 30 205 28 276 44 292
66 12 16 139 347 193 502 l18 53 70 -3 70 -3 12 175 c15 206 24 283 63 525 15
99 34 223 40 275 6 52 27 198 46 324 l34 228 0 383 c0 390 -5 465 -50 705 -17
88 -37 204 -65 367 -39 232 -262 1121 -347 1383 l-41 125 -81 83 c-44 46 -110
105 -146 132 -79 58 -280 174 -490 283 -154 79 -309 180 -342 221 -22 27 -17
52 31 174 72 181 93 274 106 482 3 47 8 114 11 150 12 141 -60 372 -151 485
-23 27 -48 61 -57 74 -24 35 -122 115 -177 145 -123 66 -353 91 -538 57z
m-7174 -1953 l154 -146 -22 -35 c-25 -41 -187 -198 -240 -232 -20 -13 -61 -44
-91 -69 -30 -25 -57 -42 -61 -38 -4 4 -28 71 -53 148 -40 123 -48 167 -66 329
-12 102 -20 190 -18 195 2 4 31 31 66 58 l63 51 57 -58 c31 -31 126 -123 211
-203z m786 135 l45 -51 -55 -215 c-40 -159 -65 -237 -95 -297 -41 -82 -41 -82
-62 -63 -45 39 -277 313 -283 334 -6 18 21 50 191 220 l199 199 8 -38 c4 -23
25 -58 52 -89z m-666 -502 c34 -38 61 -72 61 -75 0 -4 -25 -43 -55 -88 -30
-44 -55 -84 -55 -89 0 -5 -34 -82 -76 -172 -75 -160 -154 -349 -154 -367 0 -5
-5 -21 -11 -37 -15 -40 -23 -21 -58 138 -50 225 -112 631 -98 645 1 2 15 -30
31 -71 l28 -73 117 88 c64 49 134 107 156 129 21 23 42 41 46 41 4 0 34 -31
68 -69z m406 -56 c49 -55 95 -100 104 -100 8 0 30 25 49 55 l33 55 -6 -45
c-12 -78 -180 -559 -203 -582 -5 -5 -11 33 -15 91 -4 90 -12 121 -71 295 -36
107 -66 200 -66 206 0 6 11 26 23 43 13 18 30 47 37 65 7 18 16 29 20 25 4 -4
47 -53 95 -108z m-8959 -1162 c3 -16 28 -115 55 -221 43 -168 49 -205 49 -295
0 -56 6 -192 14 -302 12 -181 9 -495 -4 -508 -42 -41 -199 98 -216 190 -6 34
11 260 41 538 8 72 20 241 26 378 12 232 20 285 35 220z m4743 -648 c7 -26 19
-62 28 -79 18 -38 182 -206 200 -206 18 0 17 -3 -16 -52 -16 -24 -62 -95 -103
-158 -47 -74 -93 -131 -126 -158 l-52 -44 -1 169 c0 92 -2 191 -4 218 -10 202
-7 332 10 389 l17 60 18 -45 c9 -25 22 -67 29 -94z m-2622 -53 c15 -43 47
-102 78 -145 56 -77 56 -78 69 -277 3 -36 8 -108 11 -161 6 -85 5 -97 -10
-103 -32 -12 -98 57 -181 191 -34 53 -47 85 -51 125 -5 46 15 318 34 463 l7
50 9 -35 c5 -19 20 -68 34 -108z m3575 47 c21 -30 38 -57 38 -61 0 -4 -24 -39
-53 -76 -77 -101 -167 -259 -228 -404 -29 -71 -59 -128 -65 -128 -6 0 -56 45
-110 100 -71 71 -111 122 -141 178 -24 42 -43 82 -43 88 0 6 43 23 96 37 65
19 116 41 157 69 118 79 222 166 255 212 19 26 39 45 45 43 7 -2 29 -28 49
-58z m7550 -512 c278 -269 469 -477 521 -567 l47 -83 -132 6 c-158 6 -286 40
-314 82 -23 35 -30 31 -26 -13 4 -37 1 -41 -72 -102 -80 -68 -77 -62 -61 -144
6 -30 -13 -67 -65 -127 -71 -81 -77 -94 -205 -419 -64 -162 -120 -299 -125
-303 -4 -5 -27 40 -50 100 -23 59 -86 217 -141 350 -54 133 -99 252 -99 264 0
28 -64 90 -157 152 -66 44 -71 50 -80 95 -6 34 -13 47 -25 46 -9 -1 -87 -9
-174 -19 -144 -16 -355 -18 -369 -3 -8 7 88 226 139 316 22 41 77 118 121 171
95 115 293 314 304 306 5 -2 11 -24 15 -47 15 -93 100 -418 133 -508 71 -192
156 -340 273 -475 33 -38 76 -101 96 -138 20 -38 37 -67 39 -65 6 6 119 297
162 418 65 184 110 514 101 740 -2 61 -4 110 -4 110 1 0 67 -64 148 -143z
m-8330 16 c38 -44 40 -59 17 -135 -29 -96 -77 -192 -131 -259 -24 -29 -70 -89
-102 -131 -83 -112 -96 -116 -72 -22 18 70 33 164 42 254 4 52 10 68 27 79 45
30 134 128 163 179 16 28 32 52 35 52 3 0 13 -8 21 -17z m361 -107 l107 -104
-21 -54 c-11 -29 -25 -80 -30 -113 -17 -102 -40 -195 -48 -190 -4 2 -16 39
-25 82 -28 124 -43 162 -87 220 -44 59 -63 98 -73 156 -6 34 -4 40 31 72 21
19 38 35 38 35 0 0 49 -47 108 -104z m-3043 -4281 c79 -9 145 -17 146 -18 0
-1 -5 -51 -12 -112 -7 -60 -16 -155 -19 -210 -6 -112 -50 -472 -71 -580 -12
-62 -12 -36 -7 240 4 171 6 319 5 329 -1 11 -13 31 -28 45 -15 14 -24 20 -20
14 4 -7 5 -13 2 -13 -3 0 -13 14 -22 31 -11 23 -12 29 -2 24 7 -3 6 -1 -3 7
-9 7 -14 19 -11 27 3 8 0 11 -6 7 -13 -8 -46 88 -38 110 3 8 2 13 -3 10 -5 -3
-12 5 -15 18 -3 13 -13 26 -21 30 -9 3 -13 2 -10 -4 4 -6 -31 -10 -97 -10
-102 0 -102 0 -83 20 36 35 97 60 135 55 19 -2 100 -12 180 -20z m31 -1877
c-15 -518 -18 -878 -9 -872 11 7 52 -43 65 -81 10 -28 7 -50 -19 -154 l-30
-121 -112 -107 c-152 -146 -265 -245 -276 -241 -15 5 -201 270 -222 316 -27
59 -85 342 -99 474 -10 107 -10 109 26 255 46 191 215 806 224 815 3 4 51 14
106 22 94 14 215 54 313 105 20 10 39 17 41 15 2 -2 -2 -194 -8 -426z"/>
<path d="M9732 5830 c0 -14 2 -19 5 -12 2 6 2 18 0 25 -3 6 -5 1 -5 -13z"/>
<path d="M9381 5694 c-12 -15 -21 -32 -21 -38 0 -6 6 -2 12 9 6 11 18 28 26
38 8 9 12 17 9 17 -3 0 -15 -12 -26 -26z"/>
<path d="M9760 5691 c5 -11 15 -23 21 -27 6 -3 3 5 -6 20 -20 30 -30 35 -15 7z"/>
<path d="M9380 5436 c0 -2 8 -10 18 -17 15 -13 16 -12 3 4 -13 16 -21 21 -21
13z"/>
<path d="M10304 13088 l-19 -23 23 19 c12 11 22 21 22 23 0 8 -8 2 -26 -19z"/>
<path d="M18311 12224 c0 -11 3 -14 6 -6 3 7 2 16 -1 19 -3 4 -6 -2 -5 -13z"/>
<path d="M18111 10618 c2 -2 22 -19 44 -38 l40 -35 -34 38 c-19 20 -39 37 -45
37 -5 0 -7 -1 -5 -2z"/>
<path d="M14510 10566 c0 -2 8 -10 18 -17 15 -13 16 -12 3 4 -13 16 -21 21
-21 13z"/>
<path d="M14591 10482 c17 -29 34 -52 36 -52 7 0 -41 81 -55 92 -7 7 1 -12 19
-40z"/>
<path d="M18118 10273 c7 -3 16 -2 19 1 4 3 -2 6 -13 5 -11 0 -14 -3 -6 -6z"/>
<path d="M9331 10234 c0 -11 3 -14 6 -6 3 7 2 16 -1 19 -3 4 -6 -2 -5 -13z"/>
<path d="M9908 10203 c6 -2 18 -2 25 0 6 3 1 5 -13 5 -14 0 -19 -2 -12 -5z"/>
<path d="M14037 10203 c18 -2 50 -2 70 0 21 2 7 4 -32 4 -38 0 -55 -2 -38 -4z"/>
<path d="M14161 10164 c0 -11 3 -14 6 -6 3 7 2 16 -1 19 -3 4 -6 -2 -5 -13z"/>
<path d="M9321 10154 c0 -11 3 -14 6 -6 3 7 2 16 -1 19 -3 4 -6 -2 -5 -13z"/>
<path d="M14171 10114 c0 -11 3 -14 6 -6 3 7 2 16 -1 19 -3 4 -6 -2 -5 -13z"/>
<path d="M14182 10055 c0 -16 2 -22 5 -12 2 9 2 23 0 30 -3 6 -5 -1 -5 -18z"/>
<path d="M14191 9974 c0 -11 3 -14 6 -6 3 7 2 16 -1 19 -3 4 -6 -2 -5 -13z"/>
<path d="M9302 9795 c0 -16 2 -22 5 -12 2 9 2 23 0 30 -3 6 -5 -1 -5 -18z"/>
<path d="M9301 9724 c0 -11 3 -14 6 -6 3 7 2 16 -1 19 -3 4 -6 -2 -5 -13z"/>
<path d="M14221 9684 c0 -11 3 -14 6 -6 3 7 2 16 -1 19 -3 4 -6 -2 -5 -13z"/>
<path d="M18198 9373 c7 -3 16 -2 19 1 4 3 -2 6 -13 5 -11 0 -14 -3 -6 -6z"/>
<path d="M14228 8548 c-29 -39 -41 -58 -35 -58 2 0 18 20 36 45 37 51 36 62
-1 13z"/>
<path d="M17996 8547 c3 -10 9 -15 12 -12 3 3 0 11 -7 18 -10 9 -11 8 -5 -6z"/>
<path d="M14145 8433 c-21 -27 -28 -39 -16 -28 23 19 66 75 59 75 -2 0 -21
-21 -43 -47z"/>
<path d="M12310 8165 c-7 -9 -8 -15 -2 -15 5 0 12 7 16 15 3 8 4 15 2 15 -2 0
-9 -7 -16 -15z"/>
<path d="M11840 8100 c0 -7 -7 -22 -17 -32 -9 -10 -12 -18 -6 -18 13 0 38 48
30 57 -4 3 -7 0 -7 -7z"/>
<path d="M11812 7980 c0 -19 2 -27 5 -17 2 9 2 25 0 35 -3 9 -5 1 -5 -18z"/>
<path d="M12233 7880 c0 -30 2 -43 4 -27 2 15 2 39 0 55 -2 15 -4 2 -4 -28z"/>
<path d="M11813 7735 c0 -27 2 -38 4 -22 2 15 2 37 0 50 -2 12 -4 0 -4 -28z"/>
<path d="M12221 7614 c0 -11 3 -14 6 -6 3 7 2 16 -1 19 -3 4 -6 -2 -5 -13z"/>
<path d="M11802 7445 c0 -16 2 -22 5 -12 2 9 2 23 0 30 -3 6 -5 -1 -5 -18z"/>
<path d="M12220 7404 c0 -21 4 -45 9 -53 5 -8 7 5 4 35 -7 61 -13 70 -13 18z"/>
<path d="M12240 7321 c0 -6 4 -13 10 -16 6 -3 7 1 4 9 -7 18 -14 21 -14 7z"/>
<path d="M20493 6995 c0 -27 2 -38 4 -22 2 15 2 37 0 50 -2 12 -4 0 -4 -28z"/>
<path d="M12284 6890 c0 -52 1 -74 3 -47 2 26 2 68 0 95 -2 26 -3 4 -3 -48z"/>
<path d="M18833 6655 c-3 -9 -3 -18 -1 -21 3 -3 8 4 11 16 6 23 -1 27 -10 5z"/>
<path d="M12380 6650 c8 -5 20 -10 25 -10 6 0 3 5 -5 10 -8 5 -19 10 -25 10
-5 0 -3 -5 5 -10z"/>
<path d="M12420 6636 c0 -2 7 -7 16 -10 8 -3 12 -2 9 4 -6 10 -25 14 -25 6z"/>
<path d="M11018 6613 c7 -3 16 -2 19 1 4 3 -2 6 -13 5 -11 0 -14 -3 -6 -6z"/>
<path d="M13440 6610 c8 -5 20 -10 25 -10 6 0 3 5 -5 10 -8 5 -19 10 -25 10
-5 0 -3 -5 5 -10z"/>
<path d="M11208 6603 c7 -3 16 -2 19 1 4 3 -2 6 -13 5 -11 0 -14 -3 -6 -6z"/>
<path d="M12943 6593 c9 -2 23 -2 30 0 6 3 -1 5 -18 5 -16 0 -22 -2 -12 -5z"/>
<path d="M13013 6593 c9 -2 23 -2 30 0 6 3 -1 5 -18 5 -16 0 -22 -2 -12 -5z"/>
<path d="M13068 6593 c7 -3 16 -2 19 1 4 3 -2 6 -13 5 -11 0 -14 -3 -6 -6z"/>
<path d="M12838 6583 c7 -3 16 -2 19 1 4 3 -2 6 -13 5 -11 0 -14 -3 -6 -6z"/>
<path d="M13138 6583 c6 -2 18 -2 25 0 6 3 1 5 -13 5 -14 0 -19 -2 -12 -5z"/>
<path d="M13507 6579 c7 -7 15 -10 18 -7 3 3 -2 9 -12 12 -14 6 -15 5 -6 -5z"/>
<path d="M13188 6573 c7 -3 16 -2 19 1 4 3 -2 6 -13 5 -11 0 -14 -3 -6 -6z"/>
<path d="M12630 6530 c-18 -12 -2 -12 25 0 13 6 15 9 5 9 -8 0 -22 -4 -30 -9z"/>
<path d="M11480 6516 c0 -2 7 -7 16 -10 8 -3 12 -2 9 4 -6 10 -25 14 -25 6z"/>
<path d="M12580 6510 c-8 -5 -10 -10 -5 -10 6 0 17 5 25 10 8 5 11 10 5 10 -5
0 -17 -5 -25 -10z"/>
<path d="M20738 6383 c6 -2 18 -2 25 0 6 3 1 5 -13 5 -14 0 -19 -2 -12 -5z"/>
<path d="M20661 6303 c-19 -27 -25 -40 -15 -31 18 16 59 78 51 78 -2 0 -18
-21 -36 -47z"/>
<path d="M11278 6323 c7 -3 16 -2 19 1 4 3 -2 6 -13 5 -11 0 -14 -3 -6 -6z"/>
<path d="M12528 6313 c6 -2 18 -2 25 0 6 3 1 5 -13 5 -14 0 -19 -2 -12 -5z"/>
<path d="M19775 6300 c10 -11 20 -20 23 -20 3 0 -3 9 -13 20 -10 11 -20 20
-23 20 -3 0 3 -9 13 -20z"/>
<path d="M12738 6303 c7 -3 16 -2 19 1 4 3 -2 6 -13 5 -11 0 -14 -3 -6 -6z"/>
<path d="M11541 6280 c-1 -21 26 -58 52 -71 17 -8 16 -6 -5 13 -15 12 -32 34
-37 48 -5 14 -10 18 -10 10z"/>
<path d="M10890 6271 c0 -6 4 -13 10 -16 6 -3 7 1 4 9 -7 18 -14 21 -14 7z"/>
<path d="M12480 6273 c0 -5 -17 -28 -38 -51 -22 -23 -35 -42 -31 -42 12 0 82
90 75 97 -3 3 -6 2 -6 -4z"/>
<path d="M13146 6245 c-9 -26 -7 -32 5 -12 6 10 9 21 6 23 -2 3 -7 -2 -11 -11z"/>
<path d="M10911 6184 c0 -11 3 -14 6 -6 3 7 2 16 -1 19 -3 4 -6 -2 -5 -13z"/>
<path d="M21970 6192 c0 -3 9 -15 20 -27 l20 -21 -71 -90 c-40 -49 -90 -109
-113 -133 -65 -69 -198 -149 -397 -239 -215 -97 -248 -120 -256 -180 -5 -39
-3 -45 33 -81 31 -30 57 -44 129 -66 l90 -27 295 5 c244 5 311 9 385 26 50 11
140 30 200 42 61 12 115 26 120 32 7 7 6 8 -2 3 -8 -4 -19 8 -31 34 -10 22
-22 37 -27 33 -4 -5 -5 9 -2 30 3 22 2 35 -4 32 -5 -4 -9 12 -9 35 0 26 4 39
10 35 7 -4 8 3 4 21 -5 20 -4 25 6 19 8 -5 11 -3 8 5 -2 8 4 22 14 32 10 10
16 24 12 31 -4 7 -4 9 1 5 4 -4 14 0 21 10 9 12 13 52 14 130 0 114 -5 133
-40 140 -7 2 -18 10 -24 17 -11 14 -59 37 -86 41 -8 1 -51 16 -95 34 -73 30
-117 46 -197 70 -16 5 -28 6 -28 2z"/>
<path d="M14100 6175 c14 -8 30 -14 35 -14 6 0 -1 6 -15 14 -14 8 -29 14 -35
14 -5 0 1 -6 15 -14z"/>
<path d="M21722 6122 l-23 -37 26 28 c14 15 25 32 25 38 0 14 -3 11 -28 -29z"/>
<path d="M21360 6146 c0 -2 8 -10 18 -17 15 -13 16 -12 3 4 -13 16 -21 21 -21
13z"/>
<path d="M10911 6129 c-1 -9 -13 -34 -27 -55 -15 -21 -19 -32 -10 -24 23 18
48 69 42 83 -2 7 -5 5 -5 -4z"/>
<path d="M17689 6109 l-24 -20 28 17 c15 9 27 18 27 20 0 8 -8 4 -31 -17z"/>
<path d="M13140 6103 c0 -6 9 -21 21 -34 l20 -24 -17 30 c-24 39 -24 40 -24
28z"/>
<path d="M21580 6106 c0 -2 8 -10 18 -17 15 -13 16 -12 3 4 -13 16 -21 21 -21
13z"/>
<path d="M13530 6082 c0 -6 -12 -24 -26 -41 -17 -21 -20 -29 -10 -25 19 7 51
63 42 72 -3 3 -6 0 -6 -6z"/>
<path d="M13370 6036 c0 -2 8 -10 18 -17 15 -13 16 -12 3 4 -13 16 -21 21 -21
13z"/>
<path d="M14080 6016 c0 -2 7 -7 16 -10 8 -3 12 -2 9 4 -6 10 -25 14 -25 6z"/>
<path d="M14440 6006 c0 -3 14 -12 30 -21 17 -9 30 -13 30 -11 0 3 -13 12 -30
21 -16 9 -30 13 -30 11z"/>
<path d="M14121 5996 c2 -2 15 -9 29 -15 24 -11 24 -11 6 3 -16 13 -49 24 -35
12z"/>
<path d="M14517 5950 c3 -11 7 -20 9 -20 2 0 4 9 4 20 0 11 -4 20 -9 20 -5 0
-7 -9 -4 -20z"/>
<path d="M17609 5793 l-24 -28 28 24 c25 23 32 31 24 31 -2 0 -14 -12 -28 -27z"/>
<path d="M17970 5761 c5 -11 15 -23 21 -27 6 -3 3 5 -6 20 -20 30 -30 35 -15
7z"/>
<path d="M14195 5664 c-14 -15 -25 -32 -25 -37 0 -6 1 -8 3 -6 1 2 15 19 31
37 17 17 26 32 22 32 -4 0 -18 -12 -31 -26z"/>
<path d="M14550 5656 c0 -2 8 -10 18 -17 15 -13 16 -12 3 4 -13 16 -21 21 -21
13z"/>
<path d="M14151 5564 c0 -11 3 -14 6 -6 3 7 2 16 -1 19 -3 4 -6 -2 -5 -13z"/>
<path d="M17683 5514 c-6 -13 -7 -24 -3 -24 9 0 25 39 18 45 -2 2 -8 -7 -15
-21z"/>
<path d="M17969 5523 c-13 -16 -12 -17 4 -4 9 7 17 15 17 17 0 8 -8 3 -21 -13z"/>
<path d="M20282 5520 c0 -14 2 -19 5 -12 2 6 2 18 0 25 -3 6 -5 1 -5 -13z"/>
<path d="M17580 5516 c0 -2 8 -10 18 -17 15 -13 16 -12 3 4 -13 16 -21 21 -21
13z"/>
<path d="M19981 5504 c0 -11 3 -14 6 -6 3 7 2 16 -1 19 -3 4 -6 -2 -5 -13z"/>
<path d="M14151 5484 c0 -11 3 -14 6 -6 3 7 2 16 -1 19 -3 4 -6 -2 -5 -13z"/>
<path d="M17830 5496 c0 -2 8 -10 18 -17 15 -13 16 -12 3 4 -13 16 -21 21 -21
13z"/>
<path d="M22500 5464 l0 -36 48 6 c124 17 122 16 122 42 0 23 -2 24 -85 24
l-85 0 0 -36z"/>
<path d="M14162 5440 c0 -14 2 -19 5 -12 2 6 2 18 0 25 -3 6 -5 1 -5 -13z"/>
<path d="M11771 5434 c0 -11 3 -14 6 -6 3 7 2 16 -1 19 -3 4 -6 -2 -5 -13z"/>
<path d="M22475 5440 c-3 -5 -1 -10 4 -10 6 0 11 5 11 10 0 6 -2 10 -4 10 -3
0 -8 -4 -11 -10z"/>
<path d="M14170 5402 c0 -5 7 -15 15 -22 8 -7 15 -8 15 -2 0 5 -7 15 -15 22
-8 7 -15 8 -15 2z"/>
<path d="M14540 5365 c-11 -13 -10 -14 4 -9 9 3 16 10 16 15 0 13 -6 11 -20
-6z"/>
<path d="M14460 5360 c0 -5 5 -10 11 -10 5 0 7 5 4 10 -3 6 -8 10 -11 10 -2 0
-4 -4 -4 -10z"/>
<path d="M20320 5287 c0 -5 9 -20 20 -34 11 -14 20 -21 20 -15 0 12 -39 60
-40 49z"/>
<path d="M11729 5213 c-13 -16 -12 -17 4 -4 9 7 17 15 17 17 0 8 -8 3 -21 -13z"/>
<path d="M12122 5191 c13 -15 24 -27 26 -26 7 6 -18 43 -33 49 -12 4 -10 -2 7
-23z"/>
<path d="M12162 5075 c0 -16 2 -22 5 -12 2 9 2 23 0 30 -3 6 -5 -1 -5 -18z"/>
<path d="M20333 5000 c-12 -28 -19 -50 -17 -50 7 0 46 91 42 96 -2 2 -14 -19
-25 -46z"/>
<path d="M12146 4985 c-9 -26 -7 -32 5 -12 6 10 9 21 6 23 -2 3 -7 -2 -11 -11z"/>
<path d="M11868 4933 c17 -2 47 -2 65 0 17 2 3 4 -33 4 -36 0 -50 -2 -32 -4z"/>
<path d="M12106 4892 l-19 -27 24 22 c12 12 21 24 18 27 -2 2 -13 -8 -23 -22z"/>
<path d="M11710 4906 c0 -2 8 -10 18 -17 15 -13 16 -12 3 4 -13 16 -21 21 -21
13z"/>
</g>
</svg>
