<?xml version="1.0" standalone="no"?>
<!DOCTYPE svg PUBLIC "-//W3C//DTD SVG 20010904//EN"
 "http://www.w3.org/TR/2001/REC-SVG-20010904/DTD/svg10.dtd">
<svg version="1.0" xmlns="http://www.w3.org/2000/svg"
 width="1080.000000pt" height="1080.000000pt" viewBox="0 0 1080.000000 1080.000000"
 preserveAspectRatio="xMidYMid meet">

<g transform="translate(0.000000,1080.000000) scale(0.100000,-0.100000)"
fill="#000000" stroke="none">
<path d="M0 6535 c0 -2564 4 -4265 9 -4265 5 0 544 185 1198 411 653 226 1265
437 1358 469 94 32 352 121 575 198 223 77 765 264 1205 416 440 153 844 292
898 311 l97 35 0 -143 1 -142 107 -61 c59 -33 373 -215 697 -403 1160 -675
1631 -949 1671 -971 l41 -24 254 148 c140 82 322 188 404 236 83 48 404 235
715 415 311 181 624 363 695 405 72 42 201 117 287 166 l157 89 1 1010 0 1011
215 73 215 74 0 2403 0 2404 -5400 0 -5400 0 0 -4265z m3010 3196 c49 -35 70
-88 70 -178 l0 -83 -65 0 -65 0 0 73 c0 77 -12 106 -37 86 -10 -9 -13 -65 -13
-258 0 -135 4 -252 9 -260 5 -8 16 -11 25 -8 13 5 16 22 16 87 0 73 -2 80 -20
80 -18 0 -20 7 -20 55 l0 55 85 0 85 0 0 -195 0 -195 -39 0 c-22 0 -42 4 -45
9 -3 5 -24 2 -47 -5 -48 -17 -105 -6 -133 25 -39 43 -45 87 -46 341 0 139 5
261 10 282 14 49 54 96 93 107 42 13 106 5 137 -18z m1820 1 c46 -33 70 -97
70 -184 l0 -78 -65 0 -65 0 0 73 c0 77 -12 106 -37 86 -10 -9 -13 -65 -13
-258 0 -135 4 -252 9 -260 5 -8 16 -11 25 -8 13 5 16 22 16 87 0 73 -2 80 -20
80 -18 0 -20 7 -20 55 l0 55 85 0 85 0 0 -195 0 -195 -39 0 c-22 0 -41 5 -43
10 -2 7 -17 5 -42 -5 -69 -29 -135 -2 -167 68 -17 38 -19 68 -19 292 0 142 5
266 10 287 14 49 54 96 93 107 42 13 106 5 137 -17z m-4200 -137 l0 -155 29 0
c36 0 39 13 38 179 l-1 126 62 3 62 3 0 -381 0 -381 -62 3 -63 3 -2 150 c-1
83 -3 153 -3 158 0 4 -13 7 -30 7 l-30 0 0 -160 0 -160 -65 0 -65 0 0 380 0
380 65 0 65 0 0 -155z m371 50 c12 -58 26 -100 30 -93 4 7 12 38 18 68 7 30
16 72 22 93 l10 37 59 0 c34 0 60 -4 60 -10 0 -6 -25 -104 -55 -219 l-55 -209
0 -162 0 -161 -62 3 -63 3 -5 185 c-6 181 -7 189 -54 364 -26 98 -50 185 -53
192 -4 11 9 14 60 14 l64 0 24 -105z m420 94 c105 -36 156 -175 114 -316 -18
-62 -67 -108 -131 -125 l-44 -12 0 -148 0 -148 -65 0 -65 0 0 380 0 380 79 0
c43 0 93 -5 112 -11z m429 -54 l0 -65 -70 0 -71 0 3 -87 3 -88 45 -3 c24 -2
47 -8 51 -13 4 -7 5 -82 0 -111 -1 -4 -22 -8 -48 -10 l-48 -3 -3 -92 -3 -93
70 0 69 0 4 -55 c1 -30 2 -60 0 -65 -2 -6 -57 -10 -133 -10 l-129 0 0 380 0
380 130 0 130 0 0 -65z m248 50 c54 -23 81 -53 97 -109 26 -87 12 -210 -29
-255 -14 -16 -13 -34 19 -197 19 -98 35 -180 35 -181 0 -2 -29 -3 -64 -3 l-63
0 -17 93 c-9 50 -22 120 -28 155 -6 34 -15 62 -20 62 -4 0 -8 -70 -8 -155 l0
-155 -60 0 -60 0 0 380 0 380 80 0 c50 0 95 -6 118 -15z m277 -47 c34 -124 34
-124 65 -28 l28 85 61 3 c34 2 61 -1 61 -5 0 -5 -25 -83 -55 -173 -30 -90 -55
-173 -54 -185 0 -11 26 -103 58 -205 l58 -185 -60 -3 c-35 -2 -63 1 -67 8 -3
5 -17 51 -30 100 -12 50 -26 88 -29 84 -3 -3 -18 -47 -32 -97 l-26 -92 -61 -3
c-35 -2 -62 1 -62 7 0 5 27 95 59 200 l59 191 -59 177 c-32 98 -59 179 -59
180 0 2 29 3 64 3 l63 0 18 -62z m1005 52 c0 -6 25 -175 55 -376 30 -201 55
-368 55 -371 0 -2 -28 -3 -62 -1 l-63 3 -9 73 -9 72 -43 0 c-48 0 -49 -1 -60
-92 l-6 -58 -65 0 c-63 0 -65 1 -60 23 3 12 29 177 57 367 28 190 53 351 55
358 5 15 155 17 155 2z m294 -7 c3 -10 18 -83 33 -163 l27 -145 31 160 31 160
77 3 77 3 0 -381 0 -380 -60 0 -60 0 -2 198 -3 197 -29 -197 -29 -198 -33 0
-32 0 -12 88 c-7 48 -21 137 -30 197 l-18 110 -1 -197 -1 -198 -60 0 -60 0 0
380 0 380 74 0 c62 0 76 -3 80 -17z m466 -363 l0 -380 -65 0 -65 0 0 380 0
380 65 0 65 0 0 -380z m225 190 l50 -185 3 188 2 187 60 0 60 0 -2 -377 -3
-378 -56 -3 -56 -3 -42 153 c-23 84 -46 164 -51 178 -5 16 -9 -40 -9 -152 l-1
-178 -60 0 -60 0 0 380 0 381 57 -3 57 -3 51 -185z m-2205 -766 c24 -10 48
-29 60 -50 22 -34 41 -126 31 -142 -3 -5 -32 -12 -63 -15 -55 -5 -58 -5 -58
17 0 61 -38 111 -54 70 -19 -51 -4 -93 77 -213 76 -113 101 -174 99 -247 -1
-70 -17 -110 -62 -147 -58 -50 -146 -48 -205 4 -38 34 -55 80 -55 152 0 45 1
47 29 47 16 0 43 3 60 6 28 6 31 4 31 -17 0 -41 21 -100 37 -106 21 -8 43 23
43 58 0 39 -15 70 -87 179 -95 144 -119 228 -89 313 33 92 113 128 206 91z
m-1530 -149 l0 -155 30 0 c26 0 30 4 31 28 0 15 1 83 2 152 l2 125 63 3 62 3
0 -381 0 -381 -62 3 -63 3 -3 158 -3 157 -29 0 -30 0 0 -160 0 -160 -65 0 -65
0 0 380 0 380 65 0 65 0 0 -155z m520 90 l0 -65 -70 0 -70 0 0 -84 c0 -93 2
-96 71 -96 l39 0 -2 -62 -3 -63 -50 -5 -50 -5 0 -90 0 -90 68 -3 67 -3 0 -64
0 -65 -130 0 -130 0 0 380 0 380 130 0 130 0 0 -65z m280 61 c0 -2 25 -167 55
-367 30 -199 55 -369 55 -376 0 -9 -17 -13 -59 -13 -67 0 -65 -2 -76 93 l-6
57 -44 0 c-48 0 -46 3 -60 -102 l-6 -48 -60 0 c-52 0 -59 2 -59 19 0 20 96
665 106 714 5 27 7 27 80 27 41 0 74 -2 74 -4z m377 -25 c30 -17 47 -36 58
-65 40 -100 38 -493 -3 -575 -33 -66 -91 -90 -219 -91 l-73 0 0 381 0 381 98
-4 c79 -3 105 -8 139 -27z m1093 -36 l0 -65 -50 0 -50 0 0 -315 0 -315 -65 0
-65 0 0 314 0 315 -52 3 c-29 2 -86 2 -125 0 l-73 -4 0 -90 0 -90 50 4 50 3 0
-67 0 -67 -47 -3 -48 -3 -3 -92 -3 -93 71 0 70 0 0 -65 0 -65 -135 0 -135 0 0
380 0 380 305 0 305 0 0 -65z m5880 -893 c448 -261 899 -524 1003 -584 l187
-110 0 -1542 -1 -1541 -167 -97 c-172 -99 -817 -474 -1534 -891 -223 -131
-409 -237 -412 -237 -6 0 -279 158 -1391 804 -319 186 -613 356 -652 379 l-73
42 3 1544 2 1543 660 385 c767 447 1185 691 1339 779 l110 63 55 -31 c31 -18
423 -245 871 -506z m-8001 -152 c41 -12 91 -57 91 -82 0 -15 -9 -18 -57 -18
-38 0 -62 5 -74 16 -10 9 -35 16 -55 16 -69 0 -99 -71 -48 -111 31 -25 72 -27
100 -6 12 9 42 14 82 15 l63 0 -16 -30 c-26 -49 -87 -75 -180 -75 -61 0 -89 5
-119 21 -103 53 -99 196 7 244 47 22 149 27 206 10z m261 -95 l0 -105 100 0
100 0 0 -35 0 -35 -160 0 -160 0 0 140 0 140 60 0 60 0 0 -105z m537 86 c55
-26 77 -67 71 -137 -8 -93 -59 -128 -188 -129 -94 0 -135 16 -173 67 -27 36
-28 115 -3 153 41 63 200 88 293 46z m223 -66 c0 -72 3 -88 20 -105 24 -24 57
-26 82 -3 15 13 18 32 18 105 l0 88 60 0 60 0 0 -91 c0 -154 -36 -193 -175
-194 -89 0 -126 13 -159 58 -17 23 -22 46 -24 128 l-4 99 61 0 61 0 0 -85z
m611 63 c52 -23 69 -52 69 -119 0 -112 -52 -139 -269 -139 l-131 0 0 133 c0
74 3 137 8 141 13 15 284 1 323 -16z m-1574 -551 c55 -29 65 -108 19 -146 -14
-12 -14 -15 -2 -25 8 -6 19 -28 24 -48 l10 -38 -59 0 c-54 0 -59 2 -65 25 -9
36 -41 55 -91 55 l-43 0 0 -40 0 -40 -60 0 -60 0 0 141 0 141 148 -4 c111 -3
155 -8 179 -21z m413 -12 l0 -35 -100 0 c-93 0 -100 -1 -100 -20 0 -18 7 -20
85 -20 l85 0 0 -30 0 -30 -85 0 c-78 0 -85 -2 -85 -20 0 -18 8 -20 108 -22
l107 -3 1 -32 0 -33 -168 0 -168 0 0 140 0 140 160 0 160 0 0 -35z m177 -27
c15 -34 35 -78 44 -98 l17 -35 46 98 46 97 55 0 c33 0 55 -4 55 -11 0 -6 -33
-69 -72 -140 l-73 -129 -56 0 -57 0 -73 132 c-41 72 -75 135 -77 140 -2 4 23
8 57 8 l60 0 28 -62z m600 43 c56 -26 77 -67 71 -139 -4 -46 -10 -60 -36 -83
-61 -55 -213 -63 -284 -16 -93 63 -84 192 17 238 56 26 175 25 232 0z m241
-88 l3 -103 99 0 100 0 0 -35 0 -35 -160 0 -160 0 0 140 0 141 58 -3 57 -3 3
-102z m359 45 c15 -34 35 -78 44 -98 l17 -35 46 98 46 97 55 0 c31 0 55 -4 55
-10 0 -6 -33 -69 -72 -141 l-73 -130 -58 3 -58 3 -75 133 c-41 74 -74 136 -74
138 0 2 27 4 59 4 l60 0 28 -62z m623 27 l0 -35 -69 0 c-87 0 -131 -9 -131
-26 0 -11 20 -14 85 -14 l85 0 0 -30 0 -30 -85 0 c-78 0 -85 -2 -85 -20 0 -18
8 -20 108 -22 l107 -3 3 -32 3 -33 -170 0 -171 0 0 140 0 140 160 0 160 0 0
-35z m386 12 c55 -29 67 -103 23 -143 -16 -15 -17 -18 -4 -28 9 -6 18 -28 22
-49 l6 -37 -57 0 c-51 0 -56 2 -62 25 -9 36 -41 55 -91 55 l-43 0 0 -40 0 -40
-60 0 -60 0 0 141 0 141 148 -4 c110 -3 155 -8 178 -21z m452 4 c44 -23 73
-70 44 -72 -31 -3 -46 -2 -113 5 -40 4 -69 4 -73 -2 -3 -5 22 -12 57 -16 119
-13 155 -37 142 -95 -25 -115 -299 -123 -328 -9 -5 18 -2 19 61 14 37 -2 80
-6 96 -8 17 -2 31 2 33 10 3 8 -9 12 -39 13 -73 1 -131 21 -147 51 -14 24 -14
30 2 63 22 47 63 64 155 65 53 0 83 -5 110 -19z m-3061 -1986 c48 -41 66 -43
88 -12 8 12 18 21 20 19 3 -1 16 5 29 13 23 15 91 14 107 -2 12 -13 -23 -103
-65 -165 -39 -59 -55 -107 -56 -170 0 -20 -5 -49 -12 -63 -10 -22 -17 -25 -59
-25 -26 0 -50 4 -53 9 -3 4 -12 50 -20 100 -15 92 -31 128 -86 201 -15 19 -30
52 -33 73 -5 33 -3 39 16 47 46 18 82 11 124 -25z m511 21 c28 -17 142 -295
156 -382 l7 -41 -37 -6 c-37 -6 -104 15 -104 33 0 4 -13 13 -29 19 -36 16 -97
5 -115 -20 -18 -26 -65 -41 -101 -31 -44 12 -43 55 8 192 46 125 76 190 89
190 4 0 8 7 8 15 0 30 83 53 118 31z m-692 -97 c12 -13 15 -27 10 -51 -3 -18
-7 -39 -8 -45 -1 -7 -4 -13 -8 -13 -4 0 -7 -7 -7 -15 0 -8 4 -15 9 -15 5 0 7
-4 4 -9 -4 -5 -1 -11 4 -13 17 -5 18 -252 1 -272 -18 -22 -94 -22 -112 1 -25
29 -15 266 11 298 8 10 7 22 -4 44 -21 39 -20 74 2 93 34 31 68 30 98 -3z
m3209 -531 c7 -65 1 -160 -14 -242 -7 -38 -5 -54 7 -75 20 -35 10 -74 -23 -89
-37 -17 -73 2 -84 46 -8 28 -7 37 10 55 21 23 24 33 9 42 -5 3 -6 13 -3 22 4
10 2 14 -4 10 -6 -4 -10 10 -12 36 -1 23 -3 71 -6 107 -2 36 1 84 8 108 11 42
12 42 58 42 l47 0 7 -62z m-3119 26 c34 -9 52 -20 48 -26 -4 -7 -2 -8 5 -4 7
5 19 0 29 -11 9 -10 27 -26 38 -36 21 -17 22 -17 38 18 34 72 106 83 146 21
11 -17 20 -26 20 -20 0 5 16 16 35 24 19 8 35 17 35 20 0 11 74 30 112 30 48
0 118 -26 135 -50 8 -11 18 -18 23 -15 4 3 10 -1 13 -7 4 -13 42 21 50 45 2 8
37 13 94 15 76 3 96 1 131 -17 23 -11 45 -27 49 -33 4 -7 16 -19 26 -27 15
-12 20 -11 40 6 47 42 102 66 164 71 84 6 145 -19 224 -93 19 -18 24 -13 49
42 18 41 21 43 62 43 38 0 51 -6 93 -45 51 -46 55 -47 59 -22 1 8 8 22 15 31
7 9 10 16 5 16 -5 0 -2 5 6 10 28 18 127 9 115 -10 -11 -18 26 -18 44 1 15 16
29 20 67 17 34 -2 48 -7 46 -16 -1 -8 2 -11 7 -8 5 4 11 1 13 -6 3 -7 13 -2
27 13 20 22 30 24 109 24 74 0 93 -4 130 -24 23 -14 42 -31 42 -38 0 -8 5 -11
10 -8 6 3 10 1 10 -4 0 -6 5 -11 11 -11 5 0 8 4 4 9 -3 5 0 13 5 16 6 4 15 18
20 31 8 20 17 24 47 24 21 0 44 -4 51 -9 11 -7 31 -169 32 -264 0 -20 54 -47
95 -47 14 0 25 -6 25 -12 0 -9 4 -7 10 2 5 9 11 61 14 115 10 159 17 203 33
209 29 12 149 17 193 9 32 -6 48 -15 55 -31 5 -12 13 -22 17 -22 5 0 8 -5 8
-11 0 -5 -4 -7 -10 -4 -5 3 -10 0 -10 -8 0 -7 -12 -24 -26 -36 l-26 -23 20
-21 c20 -22 48 -102 32 -92 -4 3 -10 -2 -14 -10 -3 -8 -13 -15 -21 -15 -9 0
-13 -4 -10 -10 3 -5 1 -10 -6 -10 -7 0 -1 -10 13 -22 33 -29 44 -76 24 -103
-13 -18 -26 -20 -126 -20 -87 0 -114 3 -123 15 -14 17 -47 23 -44 7 4 -21
-134 -34 -215 -21 -21 4 -38 12 -38 19 0 19 -41 26 -56 10 -22 -22 -115 -38
-193 -33 -61 3 -75 7 -90 26 l-17 23 -19 -20 c-25 -29 -103 -29 -128 -1 -15
18 -53 18 -42 -1 8 -11 -57 -28 -89 -22 -14 3 -42 23 -61 44 -19 22 -41 39
-48 39 -7 0 -20 -18 -30 -41 -17 -39 -18 -40 -63 -37 -44 3 -47 5 -63 45 -9
23 -19 44 -22 48 -4 3 -26 -9 -50 -27 -92 -69 -100 -73 -174 -73 -102 0 -152
30 -230 138 l-21 29 -64 -22 c-78 -26 -86 -33 -103 -90 l-13 -45 -52 -3 c-41
-2 -52 0 -52 12 0 22 -47 32 -68 15 -48 -39 -90 -51 -159 -46 -67 5 -163 45
-163 68 0 5 -9 4 -20 -3 -11 -7 -20 -18 -20 -25 0 -25 -47 -37 -91 -21 -21 7
-32 19 -36 39 -10 49 -29 56 -64 21 -55 -54 -94 -67 -196 -67 -62 0 -96 4
-105 13 -10 10 -13 63 -15 210 l-1 196 26 17 c35 22 118 24 188 3z"/>
<path d="M2858 9725 c-14 -8 -35 -34 -47 -58 -20 -41 -21 -60 -21 -300 0 -274
4 -301 50 -342 32 -29 101 -27 133 3 25 24 25 24 32 3 4 -14 15 -21 31 -21
l24 0 0 175 0 175 -65 0 -65 0 0 -35 c0 -28 4 -35 20 -35 19 0 20 -7 20 -89 0
-91 -11 -121 -45 -121 -7 0 -21 7 -29 16 -14 13 -16 51 -16 265 0 154 4 258
10 270 12 21 50 25 68 7 7 -7 12 -42 12 -85 l0 -73 45 0 45 0 0 76 c0 89 -19
137 -64 165 -37 22 -100 24 -138 4z"/>
<path d="M4678 9725 c-14 -8 -35 -34 -47 -58 -20 -41 -21 -60 -21 -300 0 -274
4 -301 50 -342 32 -29 101 -27 133 3 25 24 25 24 32 3 4 -14 15 -21 31 -21
l24 0 0 175 0 175 -65 0 -65 0 0 -35 c0 -28 4 -35 20 -35 19 0 20 -7 20 -89 0
-68 -4 -93 -16 -105 -20 -21 -37 -20 -57 2 -15 16 -17 50 -17 266 0 151 4 255
10 267 12 22 52 25 68 6 6 -7 12 -44 14 -82 l3 -70 43 -3 42 -3 0 76 c0 124
-46 186 -137 185 -21 -1 -50 -7 -65 -15z"/>
<path d="M520 9370 l0 -360 45 0 45 0 0 160 0 160 50 0 50 0 0 -160 0 -160 45
0 45 0 0 360 0 360 -45 0 -45 0 0 -150 0 -150 -50 0 -50 0 0 150 0 150 -45 0
-45 0 0 -360z"/>
<path d="M880 9721 c0 -6 23 -98 50 -204 50 -192 50 -194 50 -350 l0 -157 45
0 45 0 0 147 c0 144 1 151 51 342 27 108 52 204 55 214 5 14 -1 17 -39 17
l-45 0 -22 -97 c-12 -54 -24 -108 -27 -120 -12 -54 -27 -22 -61 132 l-18 80
-42 3 c-25 2 -42 -1 -42 -7z"/>
<path d="M1250 9370 l0 -360 45 0 45 0 0 149 0 148 44 5 c99 11 141 75 141
214 0 81 -3 95 -27 131 -36 55 -79 73 -172 73 l-76 0 0 -360z m161 251 c20
-16 24 -30 27 -94 4 -70 2 -78 -21 -101 -15 -14 -38 -26 -52 -26 l-25 0 0 120
c0 120 0 120 24 120 13 0 34 -9 47 -19z"/>
<path d="M1360 9520 c0 -80 3 -100 14 -100 31 0 46 30 46 93 0 65 -18 107 -46
107 -11 0 -14 -20 -14 -100z"/>
<path d="M1600 9370 l1 -360 119 0 120 0 0 45 0 44 -72 3 -73 3 -1 94 c-1 131
-2 131 58 131 l49 0 -3 48 -3 47 -51 3 -50 3 3 97 c1 53 3 100 3 105 0 4 31 7
68 7 l69 0 1 45 2 45 -120 0 -120 0 0 -360z"/>
<path d="M1915 9373 l4 -358 37 -3 c20 -2 40 1 43 6 3 6 6 76 5 156 0 145 0
146 22 146 27 0 27 0 54 -155 29 -166 24 -155 77 -155 34 0 44 3 40 14 -3 7
-19 86 -37 175 l-31 162 25 30 c43 51 48 191 9 266 -28 54 -72 73 -170 73
l-82 0 4 -357z m160 242 c21 -20 25 -34 25 -87 0 -72 -15 -101 -59 -116 -26
-9 -30 -8 -34 11 -3 18 -2 205 2 215 5 11 47 -3 66 -23z"/>
<path d="M2020 9525 c0 -88 1 -95 20 -95 22 0 35 20 44 70 7 40 -7 99 -26 112
-33 20 -38 9 -38 -87z"/>
<path d="M2260 9723 c0 -5 24 -81 54 -170 l54 -162 -58 -188 -58 -188 40 -3
c22 -2 42 -2 44 0 2 2 18 54 35 116 18 62 36 112 40 112 8 0 31 -71 61 -182
l12 -48 44 0 c31 0 43 4 40 13 -3 6 -29 92 -58 190 l-54 179 56 169 56 169
-43 0 -42 0 -29 -92 c-16 -50 -35 -93 -41 -95 -7 -3 -23 31 -40 89 l-29 93
-42 3 c-23 2 -42 -1 -42 -5z"/>
<path d="M3240 9722 c0 -5 -22 -157 -50 -338 -27 -181 -50 -339 -50 -351 0
-20 5 -23 39 -23 43 0 42 -2 56 103 l6 47 59 0 c66 0 64 2 76 -92 l6 -58 45 0
c43 0 44 1 39 28 -3 15 -26 164 -51 332 -25 168 -48 317 -51 333 -5 26 -8 27
-65 27 -32 0 -59 -4 -59 -8z m87 -293 c6 -51 14 -110 17 -131 l6 -38 -48 0
-48 0 18 133 c9 72 18 134 18 135 0 2 6 2 13 0 7 -3 17 -41 24 -99z"/>
<path d="M3298 9430 c-4 -14 -10 -53 -14 -87 -6 -62 -6 -63 18 -63 27 0 26
-10 6 150 l-4 25 -6 -25z"/>
<path d="M3540 9370 l0 -360 40 0 40 0 0 244 c0 154 4 247 10 251 15 9 16 1
50 -230 37 -258 38 -265 55 -265 15 0 15 1 55 270 33 225 35 234 50 225 6 -4
10 -97 10 -251 l0 -244 40 0 40 0 0 360 0 360 -59 0 -59 0 -31 -164 c-17 -89
-31 -172 -31 -184 0 -24 -18 -40 -24 -20 -2 7 -19 93 -37 191 l-33 177 -58 0
-58 0 0 -360z"/>
<path d="M4030 9370 l0 -360 45 0 45 0 0 360 0 360 -45 0 -45 0 0 -360z"/>
<path d="M4220 9370 l0 -360 40 0 40 0 0 211 c0 157 3 210 12 207 6 -2 37 -97
67 -211 l56 -207 43 0 42 0 0 360 0 360 -40 0 -40 0 -2 -207 c-2 -137 -7 -208
-14 -210 -9 -3 -26 53 -116 385 -8 29 -12 32 -48 32 l-40 0 0 -360z"/>
<path d="M2034 8774 c-63 -31 -89 -125 -59 -216 9 -29 48 -101 86 -159 38 -58
74 -120 80 -137 24 -70 -21 -149 -70 -123 -21 12 -26 23 -37 84 -5 28 -10 37
-21 33 -8 -3 -26 -6 -39 -6 -22 0 -24 -4 -24 -42 0 -53 33 -122 65 -136 74
-34 157 -19 191 33 24 37 34 111 22 167 -5 28 -33 84 -66 135 -79 124 -112
191 -112 227 0 35 24 76 44 76 20 0 43 -31 51 -67 6 -31 9 -33 49 -33 l43 0
-8 52 c-14 84 -58 128 -129 128 -19 0 -49 -7 -66 -16z"/>
<path d="M520 8420 l0 -360 45 0 45 0 0 160 0 160 50 0 50 0 0 -160 0 -160 45
0 45 0 0 360 0 360 -45 0 -45 0 0 -150 0 -150 -50 0 -50 0 0 150 0 150 -45 0
-45 0 0 -360z"/>
<path d="M904 8420 l0 -360 119 0 118 0 -3 43 -4 42 -67 3 c-79 3 -78 1 -74
137 l2 90 53 3 53 3 -3 47 -3 47 -50 5 -50 5 1 100 1 100 70 5 70 5 -1 40 -1
40 -115 3 -115 3 -1 -361z"/>
<path d="M1242 8428 c-29 -194 -53 -356 -52 -360 0 -5 18 -8 39 -8 45 0 46 2
57 93 l6 57 63 0 63 0 7 -75 7 -75 44 0 c24 0 44 3 44 6 0 11 -100 670 -105
692 -5 20 -11 22 -63 22 l-57 0 -53 -352z m140 31 c23 -161 25 -149 -27 -149
-53 0 -52 -6 -30 145 8 55 15 106 15 113 0 8 6 12 13 10 7 -3 19 -49 29 -119z"/>
<path d="M1347 8470 c-21 -149 -22 -140 7 -140 29 0 29 -4 12 105 l-12 80 -7
-45z"/>
<path d="M1590 8421 l0 -361 63 0 c131 0 188 36 208 129 7 32 12 134 12 241 0
303 -21 341 -190 348 l-93 4 0 -361z m166 248 c18 -19 19 -39 19 -249 0 -210
-1 -230 -19 -249 -11 -12 -31 -21 -48 -21 l-28 0 0 270 0 270 28 0 c17 0 37
-9 48 -21z"/>
<path d="M1700 8420 c0 -211 2 -250 14 -250 8 0 22 10 30 22 13 19 16 58 16
225 0 213 -6 253 -40 253 -20 0 -20 -6 -20 -250z"/>
<path d="M2310 8420 l0 -360 115 0 115 0 0 45 0 45 -70 0 -71 0 3 113 3 112
48 3 47 3 0 50 0 49 -50 0 -50 0 0 105 0 105 70 0 70 0 0 45 0 45 -115 0 -115
0 0 -360z"/>
<path d="M2580 8735 l0 -45 55 0 55 0 0 -315 0 -315 45 0 45 0 0 315 0 315 50
0 50 0 0 45 0 45 -150 0 -150 0 0 -45z"/>
<path d="M7815 8272 c-17 -11 -100 -59 -185 -109 -557 -322 -1038 -602 -1315
-763 -176 -102 -362 -210 -413 -239 l-92 -54 2 -1499 3 -1500 175 -102 c96
-57 549 -320 1005 -586 457 -266 837 -487 845 -492 11 -7 156 72 555 305 297
173 756 441 1020 595 l480 279 3 1500 2 1500 -427 249 c-236 136 -642 372
-903 524 -669 389 -705 410 -716 410 -5 0 -23 -8 -39 -18z m935 -1236 c41 -13
42 -15 14 -15 -16 -1 -39 6 -50 14 -24 18 -20 18 36 1z m358 -273 c11 -28 34
-336 27 -350 -1 -2 -25 14 -53 35 -48 35 -52 40 -53 82 -1 35 -4 28 -11 -33
-4 -42 -13 -94 -18 -115 -10 -36 -10 -36 -4 8 3 25 7 79 10 120 2 49 8 74 15
72 7 -2 9 4 4 15 -4 10 -8 59 -8 110 -1 55 -5 87 -10 80 -6 -8 -7 -6 -3 6 3
10 6 28 6 38 0 19 2 19 43 -5 30 -18 46 -36 55 -63z m-613 54 c79 -26 206
-120 213 -157 1 -8 -7 -3 -19 13 -11 15 -25 24 -30 21 -6 -3 7 -25 28 -48 56
-63 74 -86 65 -86 -4 0 -25 23 -47 51 -75 94 -199 172 -297 185 -27 4 -45 11
-42 16 4 6 -2 7 -15 3 -12 -4 -21 -2 -21 4 0 6 -21 9 -52 7 -102 -8 -148 -16
-233 -45 -46 -15 -82 -24 -79 -20 5 8 118 45 204 67 57 15 268 8 325 -11z
m922 -223 c25 -39 37 -189 23 -302 -7 -56 -14 -102 -17 -102 -2 0 -10 6 -18
13 -32 30 -54 45 -59 40 -3 -4 -6 2 -7 13 0 30 -1 378 0 387 1 13 62 -26 78
-49z m-502 -321 c6 -57 5 -69 -10 -80 -25 -17 -35 -8 -37 35 -1 29 -2 26 -7
-17 -6 -57 -24 -78 -35 -39 -3 13 -6 51 -6 85 0 58 2 62 28 71 55 21 59 17 67
-55z m72 35 c-3 -7 -5 -2 -5 12 0 14 2 19 5 13 2 -7 2 -19 0 -25z m-10 -40
c-3 -8 -6 -5 -6 6 -1 11 2 17 5 13 3 -3 4 -12 1 -19z m-11 -49 c-9 -47 -58
-200 -62 -196 -2 2 9 48 26 102 16 53 30 104 30 111 0 8 3 14 6 14 4 0 4 -14
0 -31z m-1676 -102 c0 -12 -39 -138 -46 -145 -5 -7 -44 19 -44 30 0 6 10 37
21 69 18 49 26 59 45 59 13 0 24 -6 24 -13z m1591 -164 c-12 -20 -14 -14 -5
12 4 9 9 14 11 11 3 -2 0 -13 -6 -23z m-15 -45 c-4 -13 -13 -74 -21 -136 -11
-89 -22 -130 -49 -188 -20 -41 -38 -74 -41 -74 -3 0 1 12 9 28 44 87 58 131
67 215 10 92 27 177 36 177 3 0 2 -10 -1 -22z m194 -283 c0 -10 -16 -4 -40 16
l-25 20 33 -16 c17 -8 32 -18 32 -20z m-341 -196 c-36 -73 -69 -122 -76 -115
-3 2 6 20 19 38 14 18 38 59 54 90 15 31 30 55 32 53 2 -1 -11 -32 -29 -66z
m-1767 3 c-12 -16 -31 -53 -43 -83 -31 -76 -38 -272 -14 -379 10 -41 17 -97
16 -125 -1 -28 7 -75 18 -108 11 -32 16 -55 12 -52 -14 8 -70 171 -87 248 -8
37 -14 118 -14 178 0 92 4 123 26 187 23 69 90 180 101 168 3 -3 -4 -18 -15
-34z m2118 -183 c6 -44 9 -83 6 -86 -6 -6 -12 22 -20 87 -3 25 -9 56 -12 69
-5 16 -3 22 3 18 6 -4 16 -43 23 -88z m-1323 33 c-10 -10 -17 -23 -17 -29 0
-6 -3 -13 -7 -15 -5 -1 -33 -37 -63 -78 -151 -205 -221 -361 -239 -535 l-8
-80 -2 86 c-3 192 104 428 273 602 36 37 68 67 72 67 4 0 0 -8 -9 -18z m322
-169 c-139 -102 -244 -226 -294 -349 -14 -32 -25 -52 -25 -44 0 26 57 136 101
197 57 76 158 177 216 213 72 46 73 36 2 -17z m998 -25 c-2 -13 -4 -5 -4 17
-1 22 1 32 4 23 2 -10 2 -28 0 -40z m-16 -85 c-12 -20 -14 -14 -5 12 4 9 9 14
11 11 3 -2 0 -13 -6 -23z m-2314 -125 c-3 -8 -6 -5 -6 6 -1 11 2 17 5 13 3 -3
4 -12 1 -19z m-597 -47 c0 -10 -10 -5 -30 14 -16 16 -30 30 -30 32 0 2 14 -4
30 -14 17 -9 30 -24 30 -32z m659 -129 c7 -13 11 -28 8 -35 -4 -14 -67 156
-67 181 1 9 11 -14 24 -53 12 -38 28 -80 35 -93z m1731 123 c-7 -8 -17 -15
-23 -15 -6 0 -2 7 9 15 25 19 30 19 14 0z m74 -10 c-10 -8 -23 -14 -29 -14 -5
0 -1 6 9 14 11 8 24 15 30 15 5 0 1 -7 -10 -15z m-154 -10 c-7 -9 -15 -13 -17
-11 -7 7 7 26 19 26 6 0 6 -6 -2 -15z m221 -10 c-18 -8 -38 -15 -45 -14 -15 1
46 28 64 28 8 0 0 -6 -19 -14z m-296 -25 c-3 -5 -10 -10 -16 -10 -5 0 -9 5 -9
10 0 6 7 10 16 10 8 0 12 -4 9 -10z m370 -10 c-11 -5 -36 -8 -55 -8 -32 0 -33
1 -10 8 14 4 39 8 55 8 25 1 27 -1 10 -8z m-445 -40 c0 -5 -4 -10 -10 -10 -5
0 -10 5 -10 10 0 6 5 10 10 10 6 0 10 -4 10 -10z m500 -10 c0 -5 -25 -10 -56
-10 -34 0 -53 4 -49 10 3 6 28 10 56 10 27 0 49 -4 49 -10z m-365 -41 c-7 -21
-5 -22 35 -16 31 4 40 2 37 -8 -3 -7 9 -27 27 -44 l32 -31 37 20 c47 25 49 8
2 -22 -31 -20 -35 -28 -35 -66 0 -26 -4 -41 -10 -37 -5 3 -10 19 -10 35 l0 28
-82 4 c-59 3 -99 11 -136 27 -60 27 -64 38 -6 18 54 -20 143 -29 178 -19 l29
8 -31 34 c-18 19 -29 27 -26 18 5 -14 1 -18 -16 -18 -12 0 -18 4 -15 11 12 18
-26 38 -47 26 -31 -20 -33 3 -3 28 37 30 48 31 40 4z m545 -35 c-12 -27 -25
-51 -29 -54 -4 -3 -13 -20 -20 -37 -8 -18 -18 -33 -23 -33 -7 0 -7 4 0 13 5 6
13 30 16 53 7 37 62 122 72 111 3 -2 -5 -26 -16 -53z m-735 26 c-3 -5 -11 -10
-16 -10 -6 0 -7 5 -4 10 3 6 11 10 16 10 6 0 7 -4 4 -10z m555 -9 c14 -4 20
-10 15 -13 -14 -9 -105 3 -105 13 0 10 53 10 90 0z m10 -84 c0 -10 -65 0 -93
14 -9 6 -15 14 -12 19 6 10 105 -20 105 -33z m-600 28 c0 -2 -10 -10 -22 -16
-21 -11 -22 -11 -9 4 13 16 31 23 31 12z m534 -71 c42 -23 59 -44 37 -44 -16
0 -101 41 -101 49 0 7 10 21 15 21 2 0 23 -12 49 -26z m-561 -6 c-13 -12 -26
-19 -29 -15 -4 4 1 14 12 22 29 22 41 18 17 -7z m2 -61 c-9 -14 -23 -28 -32
-31 -17 -7 -13 0 26 47 21 25 26 13 6 -16z m522 1 c34 -33 41 -48 21 -48 -18
0 -78 50 -78 66 0 23 22 16 57 -18z m-508 -67 c-12 -23 -26 -41 -31 -41 -12 0
-10 7 18 51 33 52 43 44 13 -10z m454 10 c48 -69 32 -83 -26 -23 -29 30 -34
41 -25 50 17 17 20 16 51 -27z m-403 -37 c-16 -41 -30 -64 -40 -64 -5 0 0 22
12 50 20 49 46 62 28 14z m341 -15 c19 -38 19 -59 -1 -59 -5 0 -20 19 -34 42
-18 31 -22 46 -14 55 14 17 25 9 49 -38z m-294 -39 c-15 -53 -40 -68 -30 -18
10 55 23 82 33 72 6 -6 5 -26 -3 -54z m213 24 c12 -31 13 -84 1 -84 -9 0 -41
77 -41 98 0 22 30 12 40 -14z m-148 -40 c-4 -53 -9 -65 -20 -47 -12 19 -2 105
12 100 7 -2 10 -22 8 -53z m72 40 c9 -25 7 -92 -4 -99 -9 -5 -12 4 -26 73 -8
38 17 59 30 26z m-934 -155 c49 -2 51 -3 15 -7 -50 -5 -185 7 -185 17 0 4 26
4 58 0 31 -4 82 -8 112 -10z"/>
<path d="M8385 6820 c-4 -6 6 -10 22 -10 22 0 25 2 13 10 -19 12 -27 12 -35 0z"/>
<path d="M8465 6800 c-3 -5 1 -10 10 -10 9 0 13 5 10 10 -3 6 -8 10 -10 10 -2
0 -7 -4 -10 -10z"/>
<path d="M8530 6770 c0 -5 7 -10 15 -10 8 0 15 5 15 10 0 6 -7 10 -15 10 -8 0
-15 -4 -15 -10z"/>
<path d="M8596 6733 c13 -14 27 -24 30 -21 6 7 -35 48 -47 48 -5 0 3 -12 17
-27z"/>
<path d="M8640 6704 c0 -8 5 -12 10 -9 6 4 8 11 5 16 -9 14 -15 11 -15 -7z"/>
<path d="M1433 7623 c-26 -5 -39 -20 -48 -55 -5 -21 -1 -33 19 -52 48 -49 126
-24 126 39 0 31 -21 65 -40 65 -5 0 -14 2 -22 4 -7 2 -23 1 -35 -1z"/>
<path d="M2208 7624 c-5 -4 -8 -36 -8 -71 l0 -63 51 0 c50 0 87 12 101 34 14
20 8 63 -10 79 -19 18 -122 34 -134 21z"/>
<path d="M630 7051 l0 -31 59 0 c41 0 62 5 71 15 20 24 0 36 -69 42 l-61 6 0
-32z"/>
<path d="M1873 7065 c-51 -21 -53 -88 -3 -115 50 -27 110 5 110 58 0 51 -54
79 -107 57z"/>
<path d="M3430 7045 c0 -23 3 -25 51 -25 58 0 91 14 83 35 -5 11 -23 15 -70
15 -62 0 -64 -1 -64 -25z"/>
<path d="M2159 4418 c-19 -6 -29 -20 -39 -50 -9 -31 -9 -43 -1 -46 6 -2 9 -8
5 -13 -8 -14 37 -48 64 -49 29 0 82 54 82 84 0 51 -60 91 -111 74z"/>
<path d="M887 4383 c-17 -16 -4 -93 15 -93 6 0 8 7 4 15 -3 8 -1 15 4 15 11 0
13 30 4 54 -7 17 -16 20 -27 9z"/>
<path d="M756 1529 l-26 -20 0 -254 0 -253 42 -25 c24 -14 46 -23 49 -21 4 2
7 106 8 230 0 125 2 228 4 230 2 2 54 -25 115 -60 62 -36 121 -68 132 -71 14
-4 57 15 141 65 67 39 124 68 128 65 9 -9 8 -3 10 -245 l1 -221 23 12 c12 6
32 21 45 32 22 20 22 24 22 268 l0 248 -26 20 c-15 12 -38 21 -53 21 -14 0
-80 -31 -147 -70 -67 -38 -127 -70 -134 -70 -7 0 -67 32 -134 70 -67 39 -133
70 -147 70 -15 0 -38 -9 -53 -21z"/>
<path d="M1597 1532 c-15 -17 -17 -58 -17 -381 0 -231 4 -369 10 -382 10 -19
33 -19 1045 -19 l1035 0 15 24 c14 20 15 71 13 386 -3 345 -4 362 -22 376 -17
12 -175 14 -1041 14 -977 0 -1023 -1 -1038 -18z m1933 -159 c0 -16 -26 -17
-36 -2 -5 8 -9 8 -14 -1 -5 -8 -9 -7 -13 4 -5 14 0 16 28 14 21 -1 35 -7 35
-15z m-105 -30 c-8 -45 -35 -100 -69 -139 l-24 -30 50 -59 c27 -33 63 -87 80
-120 l30 -60 -79 85 c-44 47 -92 91 -106 99 -23 12 -29 11 -61 -9 -105 -64
-303 -104 -496 -98 l-115 3 135 17 c74 10 170 27 213 38 73 18 247 92 247 104
0 8 -147 81 -194 96 -21 7 -70 18 -110 25 l-71 13 75 1 c100 1 198 -21 284
-64 l70 -35 52 51 c29 28 60 67 70 85 24 44 28 43 19 -3z"/>
<path d="M6490 1185 l0 -365 1365 0 1365 0 0 365 0 365 -1365 0 -1365 0 0
-365z m320 3 l0 -138 -30 0 -30 0 0 134 c0 139 2 145 43 143 15 -1 17 -15 17
-139z m142 130 c8 -7 37 -51 64 -98 l49 -85 3 90 c3 87 9 104 40 105 9 0 12
-35 12 -140 l0 -140 -37 0 c-38 0 -39 1 -93 98 l-55 97 -3 -97 c-3 -97 -3 -98
-27 -98 l-25 0 0 133 c0 74 3 137 7 140 11 11 48 8 65 -5z m393 -18 c0 -23 -4
-25 -47 -28 -46 -3 -48 -5 -48 -33 0 -28 2 -29 45 -29 41 0 45 -2 45 -25 0
-23 -4 -25 -45 -25 l-45 0 0 -55 c0 -54 0 -55 -30 -55 l-30 0 0 140 0 141 78
-3 c75 -3 77 -4 77 -28z m260 0 c50 -47 59 -153 18 -209 -46 -61 -156 -61
-207 0 -22 25 -26 41 -26 90 0 73 20 115 63 135 46 21 122 13 152 -16z m379
-102 c25 -73 46 -136 46 -140 0 -5 -13 -8 -29 -8 -23 0 -31 6 -40 30 -9 28
-13 30 -61 30 -48 0 -51 -1 -56 -30 -6 -26 -11 -30 -40 -30 -19 0 -34 2 -34 4
0 6 90 258 96 267 3 5 20 9 38 9 l33 0 47 -132z m144 15 l3 -113 54 0 c52 0
55 -1 55 -25 l0 -26 -87 3 -88 3 -2 129 c-1 72 1 134 4 138 2 5 17 8 31 6 l27
-3 3 -112z m422 90 c83 -49 77 -193 -9 -238 -18 -9 -56 -15 -96 -15 l-65 0 0
133 c0 74 3 137 8 141 12 13 131 -2 162 -21z m225 -70 c17 -50 32 -94 35 -97
4 -3 21 40 39 95 l33 100 36 -3 37 -3 3 -137 3 -138 -31 0 -30 0 -1 88 -1 87
-30 -87 c-28 -83 -31 -88 -58 -88 -28 0 -31 4 -59 93 l-29 92 -1 -92 -1 -93
-30 0 -30 0 0 133 c0 74 3 137 7 141 4 4 23 6 43 4 35 -3 35 -3 65 -95z"/>
<path d="M7474 1255 c-23 -23 -26 -32 -22 -75 6 -61 21 -80 63 -80 45 0 65 26
65 86 0 57 -13 80 -52 89 -21 6 -33 1 -54 -20z"/>
<path d="M7898 1254 c-3 -5 -10 -26 -16 -46 -10 -38 -10 -38 19 -38 17 0 29 5
28 13 -1 25 -26 81 -31 71z"/>
<path d="M8440 1185 c0 -85 0 -85 26 -85 39 0 61 16 74 55 20 61 -11 115 -67
115 l-33 0 0 -85z"/>
<path d="M889 1313 c-6 -43 -5 -373 1 -388 11 -30 157 -117 195 -117 40 0 194
88 204 116 10 29 5 226 -5 225 -15 -2 -86 -40 -141 -75 -44 -28 -53 -39 -53
-63 0 -41 10 -44 59 -15 55 31 63 30 55 -3 -12 -55 -88 -94 -150 -79 -15 4
-39 20 -55 36 -28 27 -29 33 -29 119 0 103 0 103 72 71 56 -24 78 -19 173 44
79 53 89 65 80 106 l-6 30 -57 -30 c-31 -17 -73 -39 -92 -50 -19 -11 -42 -20
-50 -20 -8 0 -31 9 -50 20 -84 48 -150 80 -151 73z"/>
<path d="M730 690 l0 -40 45 0 c41 0 45 2 45 25 0 18 -5 25 -19 25 -11 0 -23
-4 -26 -10 -3 -5 3 -10 15 -10 12 0 18 -4 15 -10 -3 -5 -17 -10 -31 -10 -20 0
-24 5 -24 31 0 31 1 31 35 26 19 -3 35 -2 35 4 0 5 -20 9 -45 9 l-45 0 0 -40z"/>
<path d="M877 695 c-20 -42 -22 -54 -5 -37 15 15 54 16 63 2 3 -5 11 -10 16
-10 5 0 0 18 -11 40 -25 49 -41 50 -63 5z m43 -6 c0 -5 -7 -9 -15 -9 -9 0 -12
6 -9 15 6 15 24 11 24 -6z"/>
<path d="M998 723 c-10 -19 -8 -73 1 -73 6 0 11 11 11 25 0 27 9 32 28 13 9
-9 15 -9 24 0 18 18 26 15 31 -15 3 -20 4 -15 6 15 1 47 0 48 -33 27 -21 -14
-24 -14 -36 0 -14 16 -27 19 -32 8z"/>
<path d="M1150 690 c0 -22 5 -40 10 -40 6 0 10 18 10 40 0 22 -4 40 -10 40 -5
0 -10 -18 -10 -40z"/>
<path d="M1210 690 c0 -22 5 -40 10 -40 6 0 10 11 10 26 l0 25 33 -25 c19 -15
37 -26 40 -26 4 0 7 18 7 40 0 22 -4 40 -10 40 -5 0 -10 -12 -10 -27 l0 -27
-28 27 c-39 38 -52 34 -52 -13z"/>
<path d="M1355 710 c-13 -41 3 -60 51 -60 40 0 44 2 44 25 0 20 -5 25 -25 25
-14 0 -25 -4 -25 -10 0 -5 7 -10 15 -10 8 0 15 -5 15 -11 0 -6 -12 -9 -27 -7
-22 2 -28 8 -28 28 0 22 4 25 38 24 20 -1 37 3 37 7 0 5 -20 9 -44 9 -36 0
-46 -4 -51 -20z"/>
</g>
</svg>
